<?xml version="1.0" encoding="UTF-8"?>
<!DOCTYPE svg PUBLIC "-//W3C//DTD SVG 1.1//EN" "http://www.w3.org/Graphics/SVG/1.1/DTD/svg11.dtd">
<!-- Creator: CorelDRAW 2020 (64-Bit) -->
<svg xmlns="http://www.w3.org/2000/svg" xml:space="preserve" width="8.5in" height="11in" version="1.1" style="shape-rendering:geometricPrecision; text-rendering:geometricPrecision; image-rendering:optimizeQuality; fill-rule:evenodd; clip-rule:evenodd"
viewBox="0 0 8500 11000"
 xmlns:xlink="http://www.w3.org/1999/xlink"
 xmlns:xodm="http://www.corel.com/coreldraw/odm/2003">
 <defs>
  <style type="text/css">
   <![CDATA[
    .fil5 {fill:#FEFEFE}
    .fil9 {fill:#F18035}
    .fil33 {fill:#FCE61F}
    .fil6 {fill:#EC7C36}
    .fil4 {fill:#FAED1F}
    .fil45 {fill:#EFAE33}
    .fil67 {fill:#E8EDA5}
    .fil40 {fill:#E7E52E}
    .fil34 {fill:#CE6539}
    .fil28 {fill:#CB4E9B}
    .fil15 {fill:#A23D34}
    .fil49 {fill:#9E3434}
    .fil10 {fill:#9F5035}
    .fil39 {fill:#B73F95}
    .fil35 {fill:#903645}
    .fil50 {fill:#B45BA2}
    .fil12 {fill:#8AC3EA}
    .fil79 {fill:#9ACA48}
    .fil29 {fill:#8B4C9C}
    .fil76 {fill:#54C6DC}
    .fil36 {fill:#843B8F}
    .fil25 {fill:#3DC3F2}
    .fil37 {fill:#4AAADF}
    .fil51 {fill:#54B952}
    .fil68 {fill:#31B454}
    .fil54 {fill:#11A9C8}
    .fil61 {fill:#12A064}
    .fil59 {fill:#0C80AE}
    .fil31 {fill:#2A3A58}
    .fil70 {fill:#2C365C}
    .fil73 {fill:#344C93}
    .fil60 {fill:#364986}
    .fil0 {fill:#201E1E}
    .fil85 {fill:#201E1E}
    .fil84 {fill:#201E1E}
    .fil14 {fill:url(#id0)}
    .fil26 {fill:url(#id1)}
    .fil58 {fill:url(#id2)}
    .fil24 {fill:url(#id3)}
    .fil22 {fill:url(#id4)}
    .fil57 {fill:url(#id5)}
    .fil80 {fill:url(#id6)}
    .fil75 {fill:url(#id7)}
    .fil65 {fill:url(#id8)}
    .fil74 {fill:url(#id9)}
    .fil2 {fill:url(#id10)}
    .fil55 {fill:url(#id11)}
    .fil72 {fill:url(#id12)}
    .fil47 {fill:url(#id13)}
    .fil41 {fill:url(#id14)}
    .fil16 {fill:url(#id15)}
    .fil32 {fill:url(#id16)}
    .fil66 {fill:url(#id17)}
    .fil13 {fill:url(#id18)}
    .fil64 {fill:url(#id19)}
    .fil53 {fill:url(#id20)}
    .fil11 {fill:url(#id21)}
    .fil86 {fill:url(#id22)}
    .fil7 {fill:url(#id23)}
    .fil1 {fill:url(#id24)}
    .fil77 {fill:url(#id25)}
    .fil27 {fill:url(#id26)}
    .fil3 {fill:url(#id27)}
    .fil21 {fill:url(#id28)}
    .fil19 {fill:url(#id29)}
    .fil48 {fill:url(#id30)}
    .fil18 {fill:url(#id31)}
    .fil62 {fill:url(#id32)}
    .fil44 {fill:url(#id33)}
    .fil17 {fill:url(#id34)}
    .fil71 {fill:url(#id35)}
    .fil8 {fill:url(#id36)}
    .fil43 {fill:url(#id37)}
    .fil42 {fill:url(#id38)}
    .fil30 {fill:url(#id39)}
    .fil78 {fill:url(#id40)}
    .fil56 {fill:url(#id41)}
    .fil63 {fill:url(#id42)}
    .fil20 {fill:url(#id43)}
    .fil46 {fill:url(#id44)}
    .fil38 {fill:url(#id45)}
    .fil81 {fill:url(#id46)}
    .fil69 {fill:url(#id47)}
    .fil52 {fill:url(#id48)}
    .fil23 {fill:url(#id49)}
    .fil82 {fill:url(#id50)}
    .fil83 {fill:url(#id51);fill-rule:nonzero}
   ]]>
  </style>
  <linearGradient id="id0" gradientUnits="userSpaceOnUse" x1="3346.89" y1="5731.67" x2="5002.14" y2="3638.96">
   <stop offset="0" style="stop-opacity:1; stop-color:#B65637"/>
   <stop offset="1" style="stop-opacity:1; stop-color:#FAED1F"/>
  </linearGradient>
  <linearGradient id="id1" gradientUnits="userSpaceOnUse" x1="2825.96" y1="5524.49" x2="2809.07" y2="5317.53">
   <stop offset="0" style="stop-opacity:1; stop-color:#60C8DA"/>
   <stop offset="1" style="stop-opacity:1; stop-color:#FEFEFE"/>
  </linearGradient>
  <linearGradient id="id2" gradientUnits="userSpaceOnUse" x1="3076.8" y1="6204.4" x2="3113.27" y2="6487.54">
   <stop offset="0" style="stop-opacity:1; stop-color:#1B4A4F"/>
   <stop offset="1" style="stop-opacity:1; stop-color:#0C6965"/>
  </linearGradient>
  <linearGradient id="id3" gradientUnits="userSpaceOnUse" x1="2153.67" y1="4698.98" x2="2205.53" y2="4795.71">
   <stop offset="0" style="stop-opacity:1; stop-color:#42ADE2"/>
   <stop offset="0.54902" style="stop-opacity:1; stop-color:#45B86F"/>
   <stop offset="1" style="stop-opacity:1; stop-color:#42ADE2"/>
  </linearGradient>
  <linearGradient id="id4" gradientUnits="userSpaceOnUse" x1="4431.45" y1="5145.35" x2="4401.67" y2="5217.54">
   <stop offset="0" style="stop-opacity:1; stop-color:#4B2D5E"/>
   <stop offset="1" style="stop-opacity:1; stop-color:#ED3577"/>
  </linearGradient>
  <linearGradient id="id5" gradientUnits="userSpaceOnUse" x1="3051.02" y1="6765.39" x2="3399.89" y2="6182.94">
   <stop offset="0" style="stop-opacity:1; stop-color:#0497C4"/>
   <stop offset="0.74902" style="stop-opacity:1; stop-color:#76C695"/>
   <stop offset="1" style="stop-opacity:1; stop-color:#66BE6E"/>
  </linearGradient>
  <linearGradient id="id6" gradientUnits="userSpaceOnUse" x1="4160.61" y1="2627.54" x2="4200.89" y2="2846.41">
   <stop offset="0" style="stop-opacity:1; stop-color:#95C949"/>
   <stop offset="1" style="stop-opacity:1; stop-color:#5CBA51"/>
  </linearGradient>
  <linearGradient id="id7" gradientUnits="userSpaceOnUse" x1="3804.85" y1="2800.2" x2="4034.16" y2="2363.8">
   <stop offset="0" style="stop-opacity:1; stop-color:#2B2D33"/>
   <stop offset="1" style="stop-opacity:1; stop-color:#363C76"/>
  </linearGradient>
  <linearGradient id="id8" gradientUnits="userSpaceOnUse" x1="3299.74" y1="6504.13" x2="3300.18" y2="6483.14">
   <stop offset="0" style="stop-opacity:1; stop-color:#45B86F"/>
   <stop offset="1" style="stop-opacity:1; stop-color:#E8EDA4"/>
  </linearGradient>
  <linearGradient id="id9" gradientUnits="userSpaceOnUse" x1="5166.01" y1="2777.8" x2="4805.45" y2="2987.89">
   <stop offset="0" style="stop-opacity:1; stop-color:#304975"/>
   <stop offset="1" style="stop-opacity:1; stop-color:#2B2E36"/>
  </linearGradient>
  <linearGradient id="id10" gradientUnits="userSpaceOnUse" x1="2464.84" y1="4052.83" x2="2243.44" y2="3240.97">
   <stop offset="0" style="stop-opacity:1; stop-color:#ED3577"/>
   <stop offset="1" style="stop-opacity:1; stop-color:#63C2EE"/>
  </linearGradient>
  <linearGradient id="id11" gradientUnits="userSpaceOnUse" x1="3609.35" y1="6138.63" x2="3544.79" y2="6074.78">
   <stop offset="0" style="stop-opacity:1; stop-color:#BF3372"/>
   <stop offset="1" style="stop-opacity:1; stop-color:#A04E35"/>
  </linearGradient>
  <linearGradient id="id12" gradientUnits="userSpaceOnUse" x1="3836.46" y1="3310.62" x2="5107.38" y2="2626.89">
   <stop offset="0" style="stop-opacity:1; stop-color:#33C6F4"/>
   <stop offset="0.639216" style="stop-opacity:1; stop-color:#92D88D"/>
   <stop offset="1" style="stop-opacity:1; stop-color:#F2EA26"/>
  </linearGradient>
  <linearGradient id="id13" gradientUnits="userSpaceOnUse" x1="6488.01" y1="5207.59" x2="6199.94" y2="5215.81">
   <stop offset="0" style="stop-opacity:1; stop-color:#E68E37"/>
   <stop offset="1" style="stop-opacity:1; stop-color:#F37635"/>
  </linearGradient>
  <linearGradient id="id14" gradientUnits="userSpaceOnUse" x1="6313.96" y1="5454.74" x2="6336.25" y2="5379.07">
   <stop offset="0" style="stop-opacity:1; stop-color:#F26F35"/>
   <stop offset="1" style="stop-opacity:1; stop-color:#EF4951"/>
  </linearGradient>
  <linearGradient id="id15" gradientUnits="userSpaceOnUse" x1="4171.02" y1="4306.95" x2="4065.13" y2="5537.66">
   <stop offset="0" style="stop-opacity:1; stop-color:#753A81"/>
   <stop offset="0.380392" style="stop-opacity:1; stop-color:#ED3577"/>
   <stop offset="1" style="stop-opacity:1; stop-color:#753A81"/>
  </linearGradient>
  <linearGradient id="id16" gradientUnits="userSpaceOnUse" x1="2557.71" y1="5849.33" x2="2763.61" y2="5914.94">
   <stop offset="0" style="stop-opacity:1; stop-color:#5D5CA7"/>
   <stop offset="0.2" style="stop-opacity:1; stop-color:#1ABAED"/>
   <stop offset="0.741176" style="stop-opacity:1; stop-color:#1ABAED"/>
   <stop offset="1" style="stop-opacity:1; stop-color:#2A3A58"/>
  </linearGradient>
  <linearGradient id="id17" gradientUnits="userSpaceOnUse" xlink:href="#id8" x1="3332.01" y1="6436.26" x2="3338.47" y2="6401.39">
  </linearGradient>
  <linearGradient id="id18" gradientUnits="userSpaceOnUse" x1="4371.83" y1="3230.76" x2="4862.98" y2="3253.84">
   <stop offset="0" style="stop-opacity:1; stop-color:#AF6B39"/>
   <stop offset="1" style="stop-opacity:1; stop-color:#F79633"/>
  </linearGradient>
  <linearGradient id="id19" gradientUnits="userSpaceOnUse" x1="3107.41" y1="6757.46" x2="3284.24" y2="6775.12">
   <stop offset="0" style="stop-opacity:1; stop-color:#0F6278"/>
   <stop offset="1" style="stop-opacity:1; stop-color:#263644"/>
  </linearGradient>
  <linearGradient id="id20" gradientUnits="userSpaceOnUse" x1="4866.35" y1="6422.42" x2="5509.4" y2="5933.21">
   <stop offset="0" style="stop-opacity:1; stop-color:#0FAD55"/>
   <stop offset="0.211765" style="stop-opacity:1; stop-color:#0FAD55"/>
   <stop offset="0.45098" style="stop-opacity:1; stop-color:#076342"/>
   <stop offset="0.619608" style="stop-opacity:1; stop-color:#5FBB51"/>
   <stop offset="1" style="stop-opacity:1; stop-color:#5FBB51"/>
  </linearGradient>
  <linearGradient id="id21" gradientUnits="userSpaceOnUse" x1="3078.51" y1="5636.78" x2="3069.74" y2="5617.26">
   <stop offset="0" style="stop-opacity:1; stop-color:#ED3577"/>
   <stop offset="1" style="stop-opacity:1; stop-color:#753A81"/>
  </linearGradient>
  <linearGradient id="id22" gradientUnits="userSpaceOnUse" x1="5283.22" y1="6883.34" x2="5173.95" y2="6790.81">
   <stop offset="0" style="stop-opacity:1; stop-color:#1761AC"/>
   <stop offset="1" style="stop-opacity:1; stop-color:#2A2F38"/>
  </linearGradient>
  <linearGradient id="id23" gradientUnits="userSpaceOnUse" x1="2445.12" y1="5443.88" x2="2282.61" y2="5569.44">
   <stop offset="0" style="stop-opacity:1; stop-color:#F26B36"/>
   <stop offset="1" style="stop-opacity:1; stop-color:#C34B3B"/>
  </linearGradient>
  <linearGradient id="id24" gradientUnits="userSpaceOnUse" x1="1915.48" y1="4631.94" x2="1690.78" y2="3154.51">
   <stop offset="0" style="stop-opacity:1; stop-color:#4581C2"/>
   <stop offset="0.329412" style="stop-opacity:1; stop-color:#63C2EE"/>
   <stop offset="0.639216" style="stop-opacity:1; stop-color:#71BF4F"/>
   <stop offset="0.8" style="stop-opacity:1; stop-color:#FAED1F"/>
   <stop offset="1" style="stop-opacity:1; stop-color:#71BF4F"/>
  </linearGradient>
  <linearGradient id="id25" gradientUnits="userSpaceOnUse" x1="3403.74" y1="3326.44" x2="4374.91" y2="2461.3">
   <stop offset="0" style="stop-opacity:1; stop-color:#416CB2"/>
   <stop offset="0.278431" style="stop-opacity:1; stop-color:#416CB2"/>
   <stop offset="0.541176" style="stop-opacity:1; stop-color:#A38ABF"/>
   <stop offset="1" style="stop-opacity:1; stop-color:#FEFEFE"/>
  </linearGradient>
  <linearGradient id="id26" gradientUnits="userSpaceOnUse" x1="2838.74" y1="5534.03" x2="2841.93" y2="5405.45">
   <stop offset="0" style="stop-opacity:1; stop-color:#17B255"/>
   <stop offset="0.419608" style="stop-opacity:1; stop-color:#52BC50"/>
   <stop offset="1" style="stop-opacity:1; stop-color:#8DC74A"/>
  </linearGradient>
  <linearGradient id="id27" gradientUnits="userSpaceOnUse" x1="1750.12" y1="4440.2" x2="2258.99" y2="3543.93">
   <stop offset="0" style="stop-opacity:1; stop-color:#ED3577"/>
   <stop offset="0.568627" style="stop-opacity:1; stop-color:#753A81"/>
   <stop offset="0.788235" style="stop-opacity:1; stop-color:#29415E"/>
   <stop offset="1" style="stop-opacity:1; stop-color:#4581C2"/>
  </linearGradient>
  <linearGradient id="id28" gradientUnits="userSpaceOnUse" x1="4377.98" y1="4805.74" x2="4373.73" y2="4891.63">
   <stop offset="0" style="stop-opacity:1; stop-color:#B1DAF1"/>
   <stop offset="1" style="stop-opacity:1; stop-color:#FEFEFE"/>
  </linearGradient>
  <linearGradient id="id29" gradientUnits="userSpaceOnUse" x1="4859.61" y1="4244.29" x2="4868.84" y2="4218.77">
   <stop offset="0" style="stop-opacity:1; stop-color:#0E8BC1"/>
   <stop offset="1" style="stop-opacity:1; stop-color:#29415E"/>
  </linearGradient>
  <linearGradient id="id30" gradientUnits="userSpaceOnUse" x1="4953.07" y1="5760.22" x2="4930.95" y2="5777.11">
   <stop offset="0" style="stop-opacity:1; stop-color:#F79233"/>
   <stop offset="1" style="stop-opacity:1; stop-color:#DE6338"/>
  </linearGradient>
  <linearGradient id="id31" gradientUnits="userSpaceOnUse" xlink:href="#id29" x1="3994.06" y1="4374.15" x2="4029.22" y2="4309.85">
  </linearGradient>
  <linearGradient id="id32" gradientUnits="userSpaceOnUse" x1="3183.56" y1="6709.6" x2="3441.89" y2="6659.24">
   <stop offset="0" style="stop-opacity:1; stop-color:#5BC4BF"/>
   <stop offset="1" style="stop-opacity:1; stop-color:#E8EDA4"/>
  </linearGradient>
  <linearGradient id="id33" gradientUnits="userSpaceOnUse" x1="6089.32" y1="5170.74" x2="6036" y2="5078.7">
   <stop offset="0" style="stop-opacity:1; stop-color:#B73F95"/>
   <stop offset="1" style="stop-opacity:1; stop-color:#AF3437"/>
  </linearGradient>
  <linearGradient id="id34" gradientUnits="userSpaceOnUse" xlink:href="#id28" x1="3982.46" y1="3750.72" x2="4046.46" y2="3953.12">
  </linearGradient>
  <linearGradient id="id35" gradientUnits="userSpaceOnUse" x1="2890.34" y1="3681.91" x2="3018.87" y2="2685.69">
   <stop offset="0" style="stop-opacity:1; stop-color:#66CADC"/>
   <stop offset="1" style="stop-opacity:1; stop-color:#FEFEFE"/>
  </linearGradient>
  <linearGradient id="id36" gradientUnits="userSpaceOnUse" x1="2100.86" y1="5514.95" x2="2199.52" y2="5458">
   <stop offset="0" style="stop-opacity:1; stop-color:#B75BA2"/>
   <stop offset="0.470588" style="stop-opacity:1; stop-color:#753A81"/>
   <stop offset="1" style="stop-opacity:1; stop-color:#ED3577"/>
  </linearGradient>
  <linearGradient id="id37" gradientUnits="userSpaceOnUse" x1="5978.34" y1="5009.63" x2="5987.31" y2="5168.68">
   <stop offset="0" style="stop-opacity:1; stop-color:#F79333"/>
   <stop offset="1" style="stop-opacity:1; stop-color:#E4423A"/>
  </linearGradient>
  <linearGradient id="id38" gradientUnits="userSpaceOnUse" x1="6436.3" y1="5482.38" x2="6417.04" y2="5420.43">
   <stop offset="0" style="stop-opacity:1; stop-color:#BB60A4"/>
   <stop offset="1" style="stop-opacity:1; stop-color:#ED347C"/>
  </linearGradient>
  <linearGradient id="id39" gradientUnits="userSpaceOnUse" x1="2698.58" y1="5724.12" x2="2666.5" y2="5606.25">
   <stop offset="0" style="stop-opacity:1; stop-color:#5053A1"/>
   <stop offset="1" style="stop-opacity:1; stop-color:#3A5AA6"/>
  </linearGradient>
  <linearGradient id="id40" gradientUnits="userSpaceOnUse" x1="3459.99" y1="2394.42" x2="3559.01" y2="2332.98">
   <stop offset="0" style="stop-opacity:1; stop-color:#6FC6AF"/>
   <stop offset="1" style="stop-opacity:1; stop-color:#80D0DE"/>
  </linearGradient>
  <linearGradient id="id41" gradientUnits="userSpaceOnUse" x1="3559.16" y1="5970.39" x2="3610.57" y2="5903.42">
   <stop offset="0" style="stop-opacity:1; stop-color:#F89A32"/>
   <stop offset="0.690196" style="stop-opacity:1; stop-color:#DA7C35"/>
   <stop offset="1" style="stop-opacity:1; stop-color:#BC5D38"/>
  </linearGradient>
  <linearGradient id="id42" gradientUnits="userSpaceOnUse" x1="3247.98" y1="6744.96" x2="3308.35" y2="6644.48">
   <stop offset="0" style="stop-opacity:1; stop-color:#088B66"/>
   <stop offset="1" style="stop-opacity:1; stop-color:#45B653"/>
  </linearGradient>
  <linearGradient id="id43" gradientUnits="userSpaceOnUse" xlink:href="#id28" x1="4801.32" y1="3719.48" x2="4872.88" y2="3908.27">
  </linearGradient>
  <linearGradient id="id44" gradientUnits="userSpaceOnUse" xlink:href="#id13" x1="6517.78" y1="4926.06" x2="6192.3" y2="4934.78">
  </linearGradient>
  <linearGradient id="id45" gradientUnits="userSpaceOnUse" x1="5865.58" y1="5516.2" x2="5780.5" y2="5204.6">
   <stop offset="0" style="stop-opacity:1; stop-color:#4AC5DD"/>
   <stop offset="0.580392" style="stop-opacity:1; stop-color:#5CBA51"/>
   <stop offset="1" style="stop-opacity:1; stop-color:#E7E52E"/>
  </linearGradient>
  <linearGradient id="id46" gradientUnits="userSpaceOnUse" x1="5813.65" y1="3403.17" x2="7086.71" y2="3745.62">
   <stop offset="0" style="stop-opacity:1; stop-color:#FEFEFE"/>
   <stop offset="0.321569" style="stop-opacity:1; stop-color:#FCD028"/>
   <stop offset="0.478431" style="stop-opacity:1; stop-color:#F37835"/>
   <stop offset="0.741176" style="stop-opacity:1; stop-color:#835DA5"/>
   <stop offset="1" style="stop-opacity:1; stop-color:#FEFEFE"/>
  </linearGradient>
  <linearGradient id="id47" gradientUnits="userSpaceOnUse" x1="3074.31" y1="3372.78" x2="2858.07" y2="3317.3">
   <stop offset="0" style="stop-opacity:1; stop-color:#304876"/>
   <stop offset="1" style="stop-opacity:1; stop-color:#0D65A8"/>
  </linearGradient>
  <linearGradient id="id48" gradientUnits="userSpaceOnUse" x1="4820.21" y1="6503.59" x2="5444.51" y2="5868.21">
   <stop offset="0" style="stop-opacity:1; stop-color:#62C9DF"/>
   <stop offset="0.380392" style="stop-opacity:1; stop-color:#62C9DF"/>
   <stop offset="1" style="stop-opacity:1; stop-color:#FEFEFE"/>
  </linearGradient>
  <linearGradient id="id49" gradientUnits="userSpaceOnUse" x1="3923.97" y1="5709.98" x2="3958.22" y2="4870.13">
   <stop offset="0" style="stop-opacity:1; stop-color:#846DAF"/>
   <stop offset="1" style="stop-opacity:1; stop-color:#FEFEFE"/>
  </linearGradient>
  <radialGradient id="id50" gradientUnits="userSpaceOnUse" gradientTransform="matrix(1.12331 -1.08286 0.551001 1.47593 -2675 5306)" cx="6403.51" cy="3421.62" r="416.32" fx="6403.51" fy="3421.62">
   <stop offset="0" style="stop-opacity:1; stop-color:#9ACA48"/>
   <stop offset="0.380392" style="stop-opacity:1; stop-color:#9ACA48"/>
   <stop offset="1" style="stop-opacity:1; stop-color:#5CBA51"/>
  </radialGradient>
  <linearGradient id="id51" gradientUnits="userSpaceOnUse" x1="6972.31" y1="3988.25" x2="6433.45" y2="3533.7">
   <stop offset="0" style="stop-opacity:1; stop-color:#5CBA51"/>
   <stop offset="0.411765" style="stop-opacity:1; stop-color:#9ACA48"/>
   <stop offset="1" style="stop-opacity:1; stop-color:#5CBA51"/>
  </linearGradient>
 </defs>
 <g id="Layer_x0020_1">
  <metadata id="CorelCorpID_0Corel-Layer"/>
  <path class="fil0" d="M2082.22 4959.58c0,0 -22.56,-125.23 -93.73,-164.37 -71.17,-39.13 -125.85,-54.79 -277.72,-108.71 -151.88,-53.92 -205.68,-75.66 -313.29,-239.16 -107.61,-163.5 -379.24,-793.14 -379.24,-793.14 0,0 -22.23,-39.96 -11.08,-139.22 23.92,-212.89 319.86,-366.29 526.42,-450.89 229.31,-93.91 488.41,-238.19 675.4,-1.26 0,0 256.89,553.1 329.8,815.74 72.9,262.64 31.25,313.08 -53.8,431.35 -85.06,118.27 -144.06,194.8 -164.89,278.3 -20.83,83.49 -12.14,144.37 62.5,200.02l-29.51 40.01c0,0 78.11,-34.79 177.05,-40.01 98.94,-5.22 186.61,80.01 208.3,149.58 21.7,69.57 17.36,142.62 8.69,221.76 -8.68,79.14 2.6,100.88 2.6,100.88 0,0 7.81,-27.83 65.09,-21.74 57.28,6.09 82.45,17.4 131.05,64.36 0,0 -6.07,-39.14 -49.47,-112.19 -43.4,-73.05 -124.1,-240.9 -145.8,-351.35 -21.69,-110.44 -53.8,-295.69 -19.09,-573.98 0,0 50.35,-193.06 97.21,-309.59l-48.56 -546.15 312.21 -751.34 198.41 -168.91 87.86 -56.14c0,0 55.69,-52.98 92.61,-81.91 36.92,-28.93 145.62,-34.8 145.62,-34.8l25.42 -1.84c0,0 593.56,-78.93 948.64,191.7 5.06,3.86 9.78,7.74 14.32,11.64l260.46 -58.12 420.05 48.71 62.48 45.22 -38.18 24.35c0,0 -112.34,-25.22 -235.74,-1.76 -217.19,41.31 -370.23,217.95 -462.04,408.77 0,0 347.17,-6.96 551.98,372.22 0,0 284.4,273.36 386.2,671.17 98,382.96 21.46,772.81 -132.79,1129.93l246.48 -8.7c0,0 16.49,-65.22 60.75,-135.67 0,0 11.27,-96.54 57.27,-198.29 46,-101.75 71.16,-100.88 73.76,-179.15 2.6,-78.28 -78.99,-126.97 -98.08,-200.9 -15.2,-58.88 19.13,-113.89 68.81,-144.82 87.82,-54.7 195.96,-33.75 273.13,30.03 84.19,69.57 124.11,204.37 131.05,249.6 6.94,45.22 -22.56,112.19 -22.56,112.19 0,0 154.48,-104.36 352.36,-23.48 0,0 98.98,36.14 141.88,150.63 17.13,45.76 22.71,101.55 9.99,148.54 -13.89,51.31 -11.28,48.7 -11.28,48.7 0,0 38.19,14.78 45.13,106.97 6.94,92.19 -62.48,173.93 -62.48,173.93 0,0 36.45,67.84 11.28,138.28 -21.54,60.3 -85.69,145.45 -203.87,193.27 -108.41,43.87 -285.94,72.87 -388.02,6.75 0,0 -157.96,25.22 -246.48,11.31 -88.52,-13.92 -117.17,-72.15 -117.17,-72.15 0,0 -54.59,24.49 -147.57,30.97 -134.62,9.37 -351.63,-25.98 -473.84,-79.67 0,0 131.91,177.41 182.26,266.12 0,0 178.77,-125.24 433.92,-41.74 0,0 249.94,78.27 272.5,386.13 0,0 22.57,180.89 -185.72,438.31 -208.29,257.42 -548.5,429.62 -716.87,433.09 -168.36,3.48 -289.87,-93.92 -331.53,-255.68 -41.66,-161.76 -36.46,-300.91 5.2,-413.96 0,0 -28.65,-67.83 -23.44,-166.97 5.21,-99.14 48.6,-174.8 48.6,-174.8 0,0 -40.8,-129.59 -123.24,-186.98 0,0 -127.99,60.05 -263.8,94.91 -112.35,28.83 -383.09,41.81 -484.31,15.52l-280.33 318.31c0,0 26.04,38.26 3.48,75.66 -17.93,29.72 -45.19,75.93 -74.35,112.41 -63.5,79.47 -27.05,75.33 -54.1,124.13 0,0 155.35,63.47 161.43,208.71 5.29,126.56 -41.47,193.68 -100.67,224.39 -97.7,50.69 -400.49,54.35 -528.46,3.26 -107.06,-42.73 -198.3,-154.11 -224.86,-265.91 -24.46,-102.93 -2.97,-286.43 74.53,-461.84 75.11,-170.12 145.26,-336.93 337.71,-357.3 58.78,-6.21 97.74,7.82 154.47,20.79 0,0 74.65,-87.84 92.01,-176.54l-168.36 -135.67c-176.04,111.96 -254.15,127.69 -456.51,132.19 0,0 4.34,32.18 4.34,78.27 0,46.09 23.43,136.53 -154.48,198.28 -177.91,61.74 -227.39,26.09 -262.97,-33.05 -35.58,-59.14 -6.07,-82.62 -6.07,-82.62l-18.22 -25.22c0,0 -134.53,8.7 -207.43,-32.18 -72.9,-40.87 -142.32,-73.93 -191.8,-220.9 0,0 -38.19,4.35 -96.34,-134.8 -58.15,-139.15 -146.67,-351.33 147.41,-521.79z"/>
  <path class="fil1" d="M2271.99 4598.67c0,0 -24.3,-7.83 -52.07,7.83 -27.77,15.65 -213.49,101.75 -213.49,101.75 0,0 -69.42,-23.47 -241.26,-88.7 -171.84,-65.23 -191.8,-61.76 -269.04,-169.59 -77.24,-107.84 -321.11,-636.6 -321.11,-636.6 0,0 -99.51,-168.87 -101.17,-272.21 -2.28,-142.68 83.37,-239.21 200.11,-308.72 171.83,-102.31 469.12,-218.16 574.41,-250.88 123.78,-38.43 286.93,-18.37 341.31,115.16l143.1 351.39 167.06 496.44c31.2,92.71 17.47,199.27 -35.13,281.92 -76.38,120.02 -178.78,284.39 -219.57,293.95 0,0 13.89,-56.53 78.98,-137.41 65.09,-80.88 152.76,-218.29 153.63,-328.74 0.87,-110.45 -65.08,-274.81 -65.08,-274.81l-111.08 -321.78 -123.04 -315.76c-18.91,-48.54 -58.13,-97.92 -107.88,-119.74 -76.66,-33.64 -207.02,3.74 -282.84,25.02 -100.52,28.2 -381.33,167.65 -510.4,243.33 -132.95,77.92 -152.8,221.07 -110.98,361.09 32.98,110.45 362.78,747.06 362.78,747.06 77.6,118.02 199.92,164.07 325.33,208.22l137.26 48.33c0,0 216.1,-90.45 241.27,-96.53 25.17,-6.09 46,6.96 38.93,39.99l0 0z"/>
  <path class="fil2" d="M2118.75 3008c30.35,20.97 55.19,50.09 70.92,88.71l143.1 351.39 167.06 496.44c31.2,92.71 17.47,199.27 -35.13,281.92 -76.38,120.02 -178.78,284.39 -219.57,293.95 0,0 13.89,-56.53 78.98,-137.41 65.09,-80.88 152.76,-218.29 153.63,-328.74 0.87,-110.45 -65.08,-274.81 -65.08,-274.81l-111.08 -321.78 -123.04 -315.76c-14.67,-37.63 -41.53,-75.76 -76.04,-101.17 5.88,-11.81 11.36,-22.86 16.26,-32.74z"/>
  <path class="fil3" d="M1721.26 4554.74l581.63 -1093.3 -1.31 -3.77 -10.7 -27.46 -614.46 1101.66c14.58,8.18 29.56,15.76 44.83,22.87l0 0z"/>
  <path class="fil4" d="M2512.14 5109.74c0,0 58.15,-137.41 -114.56,-213.94 0,0 114.23,-87.67 229.12,-17.4 0,0 145.8,106.97 -1.74,359.18 0,0 -19.96,-93.05 -112.82,-127.84z"/>
  <path class="fil5" d="M2417.76 4905.57c-6.36,-3.35 -13.06,-6.62 -20.18,-9.78 0,0 114.23,-87.67 229.12,-17.4 0,0 94.06,69.06 54.57,226.98 -5.74,-12.93 -13.7,-34.87 -18.33,-64.73 -7.81,-50.44 -5.21,-100.89 -78.98,-147.85 -47.17,-30.03 -119.89,-7.43 -166.2,12.77z"/>
  <path class="fil6" d="M2514.32 5103.63c6.09,-19.01 20.21,-79.39 -22.03,-136.94 18.62,0.39 56.15,6.76 63.28,50.87 9.55,59.14 0.86,86.09 0.86,86.09l45.13 37.4c0,0 67.7,-43.48 50.33,-141.75 0,0 26.23,27.36 37.07,64.8 -5.68,47.71 -24.1,105.28 -64,173.48 0,0 -19.39,-90.37 -108.82,-126.28l-1.82 -7.66z"/>
  <path class="fil4" d="M2648.02 5462.89c-6.54,23.88 -21.32,61.29 -52.94,85.19 -49.47,37.39 -203.08,122.62 -228.25,143.49 -25.17,20.88 -98.94,74.8 -170.97,34.8 -72.04,-40.01 -79.85,-124.37 -79.85,-124.37 0,0 -79.85,-30.43 -102.41,-107.83 -22.57,-77.4 -12.15,-101.75 -12.15,-101.75 0,0 -70.3,-53.04 -72.9,-139.14 -2.61,-86.09 60.75,-155.67 128.44,-205.23 67.69,-49.57 234.33,-132.19 318.52,-86.1 84.18,46.09 97.2,122.63 23.43,149.59 -73.77,26.96 -203.95,32.17 -292.47,144.36l-26.04 63.48 23.44 6.09c0,0 56.41,-80.88 137.99,-116.54 81.58,-35.66 193.53,-63.49 233.46,-49.57 39.92,13.92 87.67,66.09 78.98,111.32 -8.68,45.22 -326.31,149.59 -352.35,240.04 0,0 4.34,9.56 19.96,2.6 15.62,-6.96 153.62,-86.96 236.06,-123.49 50.67,-22.45 80.04,-33.07 103.81,-28.63 30.02,5.6 96.7,63.53 86.24,101.69z"/>
  <path class="fil7" d="M2648.02 5462.89c-6.54,23.88 -21.32,61.29 -52.94,85.19 -49.47,37.39 -203.08,122.62 -228.25,143.49 -25.17,20.88 -98.94,74.8 -170.97,34.8 -72.04,-40.01 -79.85,-124.37 -79.85,-124.37 0,0 -79.85,-30.43 -102.41,-107.83 -22.57,-77.4 -12.15,-101.75 -12.15,-101.75 0,0 -70.3,-53.04 -72.9,-139.14 -1.85,-61.27 29.7,-114.17 72.45,-157.46l30.8 -8.03c0,0 18.23,132.19 40.79,153.06 8.46,7.83 20.85,13.34 33.01,17.16l-25.17 61.36 23.44 6.09c0,0 15.5,-22.22 42,-48.5 1.42,37.96 6.95,162.64 18.72,170 9.45,5.92 75.63,-6.7 116.91,-15.36 -40.94,26.37 -72.12,53.3 -79.55,79.11 0,0 4.34,9.56 19.96,2.6 4.11,-1.83 16.69,-8.72 34.49,-18.53l-52.76 57.42c0,0 24.3,138.28 40.79,128.71 16.49,-9.57 65.88,-50.81 65.88,-50.81 0,0 225.73,-110.07 249.16,-140.52 23.44,-30.44 29.51,-71.31 29.51,-71.31l56.06 17.59c3.87,9.45 5.26,18.7 2.98,27.03l0 0z"/>
  <path class="fil8" d="M2481.29 5620.35c-51.16,30.7 -101.05,60.09 -114.46,71.21 -25.17,20.88 -98.94,74.8 -170.97,34.8 -72.04,-40.01 -79.85,-124.37 -79.85,-124.37 0,0 -79.85,-30.43 -102.41,-107.83 -22.57,-77.4 -12.15,-101.75 -12.15,-101.75 0,0 -70.3,-53.04 -72.9,-139.14 -2.09,-69.3 38.55,-127.9 89.8,-173.98l2.04 9.39 1.93 8.93c0,0 -62.57,166.09 58.11,221.76l23.44 6.09c0,0 -4.3,112.2 36.49,133.07 40.79,20.87 76.59,25.84 76.59,25.84l0.03 -0.01c-7.33,8.86 -12.53,17.67 -15.03,26.35 0,0 4.34,9.56 19.96,2.6 3.86,-1.72 15.2,-7.9 31.32,-16.78 -12.5,26.89 -26.68,67.29 -18.28,99.41 13.88,53.06 155.94,31.43 246.34,24.41z"/>
  <path class="fil5" d="M2262.31 5740.23c-21.3,1.96 -43.96,-1.37 -66.45,-13.86 -72.04,-40.01 -79.85,-124.37 -79.85,-124.37 0,0 -79.85,-30.43 -102.41,-107.83 -22.57,-77.4 -12.15,-101.75 -12.15,-101.75 0,0 -70.3,-53.04 -72.9,-139.14 -2.6,-85.91 60.48,-155.37 128.01,-204.92l-24.71 63.18c0,0 -67.69,55.65 -57.27,137.41 10.42,81.75 55.54,118.27 55.54,118.27 0,0 -10.41,83.49 24.3,137.41 34.71,53.92 78.11,66.09 78.11,66.09 0,0 17.35,99.15 43.39,114.8 26.04,15.65 86.38,54.71 86.38,54.71z"/>
  <path class="fil4" d="M2950.09 5695.1c0,0 52.07,-71.32 43.39,-186.11 -8.68,-114.79 -27.78,-140.89 -27.78,-140.89 0,0 159.7,-40 248.22,-137.41 0,0 157.95,109.58 149.27,224.38 0,0 -144.06,196.55 -413.11,240.03z"/>
  <path class="fil9" d="M2950.09 5695.1c0,0 52.07,-71.32 43.39,-186.11 -0.4,-5.37 -0.83,-10.54 -1.28,-15.54 189.44,-25.03 271.28,-130.34 302.99,-189.91 37.18,41.33 72.23,95.81 68.01,151.53 0,0 -144.06,196.55 -413.11,240.03z"/>
  <path class="fil10" d="M2950.09 5695.1c0,0 40.54,-55.55 44.11,-147.51 159.24,-27.22 282.7,-137.07 338.38,-195.19 19.84,31.61 33.33,66.88 30.62,102.66 0,0 -144.06,196.55 -413.11,240.03z"/>
  <path class="fil11" d="M2950.09 5695.1c0,0 17.17,-23.53 30.15,-65.29 85.85,-15.85 162.44,-52.24 209.39,-77.33 35.95,-19.21 118.24,-103.11 165.74,-153.2 6.16,18.15 9.26,36.9 7.83,55.8 0,0 -144.06,196.55 -413.11,240.03l0 0z"/>
  <path class="fil12" d="M2950.09 5695.1c0,0 6.48,-8.88 14.48,-25.39 53.04,-7.53 162.07,-45.57 233.73,-91.15 58.91,-37.46 125.21,-106.04 164.16,-149.16 1.09,8.5 1.39,17.07 0.74,25.67 0,0 -144.06,196.55 -413.11,240.03z"/>
  <path class="fil4" d="M3049.85 5261c0,0 -205.63,-284.24 -254.23,-597.32 -48.6,-313.08 26.04,-667.9 279.46,-914.89l180.52 -151.32c0,0 168.37,20.87 428.73,-60.88 0,0 -60.75,93.92 -41.66,182.63 0,0 -5.2,-80.01 177.05,-187.85 182.25,-107.84 319.37,-85.24 482.54,-31.31 0,0 -65.96,-172.19 -203.08,-179.15l230.86 -168.72c0,0 246.48,-46.96 418.31,-3.48 171.84,43.48 362.76,198.28 437.4,280.03 74.64,81.75 241.26,276.56 329.78,674.87 79.69,358.57 -15.06,739.69 -161.38,1008.85 -65.34,120.18 -202.79,286.28 -300.35,368.7 0,0 -30.39,-6.08 -73.78,-33.05 -43.39,-26.96 -96.76,-32.61 -187.9,37.83 -80.99,62.61 -193.52,145.13 -241.3,212.17 -17.69,24.82 -24.36,40.87 -25.13,73.07 0,0 -148.41,71.32 -412.25,61.75 -263.83,-9.57 -492.07,-124.36 -677.8,-273.94 0,0 59.02,-40.01 12.15,-172.2 -46.86,-132.19 -187.47,-229.6 -232.59,-212.2 -45.13,17.39 -165.36,86.39 -165.36,86.39zm630.35 -543.79c0,0 -19.09,-252.21 312.44,-187.85l-116.29 34.79c0,0 270.77,158.28 508.57,186.11 237.8,27.83 466.92,5.22 631.81,-154.8 0,0 12.15,92.19 -121.5,165.24 0,0 -55.53,419.19 -354.09,593.11 -257.25,149.87 -506.76,-100.6 -623.07,-309.63 -76.09,-136.8 -117.63,-288.42 -131.96,-443.5 0,0 -48.6,48.7 -105.92,116.54zm-59.76 -319.67c0,0 54.24,-54.79 162.3,-100.45 0,0 -81.13,-135.22 -71.58,-273.5 8.89,-128.74 38.85,-297.44 205.44,-376.25 148.35,-70.13 307.82,35.11 385.6,164.06 0,0 128.45,182.62 62.49,417.44 -53.65,190.98 -179.62,229.5 -249.07,228.34 -33.58,-0.56 -61.78,-16.5 -90.23,-32.72 -145.44,-82.96 -249.02,-94.01 -404.95,-26.91zm967.18 -947.89c0,0 13.05,-229.05 204.81,-208.72 0,0 204.82,45.22 274.25,262.64 0,0 -210.03,-215.68 -479.06,-53.92zm-62.36 918.33c0,0 11.28,-80.88 150.15,-116.54 0,0 -67.7,-98.27 -81.59,-254.81 -13.89,-156.54 8.67,-293.94 137.11,-394.83 128.44,-100.89 288.13,26.09 347.15,146.1 59.02,120.02 88.52,309.6 48.59,415.7 -39.92,106.1 -55.54,125.24 -55.54,125.24 0,0 100.68,3.48 123.24,39.13 0,0 -103.28,-21.74 -276.85,75.67 0,0 -78.97,195.67 -296.81,166.1 0,0 139.19,-37.24 191.48,-106.34 36.43,-48.11 28.4,-146.43 -38.72,-163.31 -83.33,-20.97 -179.54,27.24 -248.22,67.9zm-1123.14 630.8c23.22,-61.95 108.13,-53.48 189.67,18.93 81.54,72.42 128.82,181.34 105.61,243.29 -23.22,61.96 -108.13,53.48 -189.67,-18.94 -81.54,-72.41 -128.81,-181.33 -105.61,-243.29zm1943.75 -889.15c28.89,-37.33 71.7,11.91 95.61,109.98 23.91,98.06 19.86,207.81 -9.03,245.15 -28.9,37.32 -71.7,-11.91 -95.61,-109.98 -23.91,-98.07 -19.86,-207.81 9.03,-245.14zm-33.98 632.98c33.71,29.05 23.63,128.22 -22.53,221.51 -46.16,93.29 -110.89,145.37 -144.61,116.31 -33.71,-29.04 -23.63,-128.22 22.53,-221.5 46.15,-93.28 110.89,-145.36 144.61,-116.32zm-1556.72 840.99c13.37,-45.02 110.89,-57.73 217.81,-28.39 106.93,29.33 182.77,89.61 169.4,134.63 -13.37,45.02 -110.88,57.74 -217.81,28.4 -106.93,-29.33 -182.77,-89.61 -169.4,-134.64zm-813.96 -1098.91c48.31,-41.53 122.54,13.26 165.81,122.36 43.27,109.11 39.18,231.22 -9.12,272.76 -48.31,41.53 -122.54,-13.26 -165.81,-122.36 -43.27,-109.11 -39.19,-231.22 9.12,-272.76zm356 -629.37c76.11,0 128.21,85.75 116.37,191.55 -11.85,105.78 -83.15,191.54 -159.27,191.54 -76.11,0 -128.21,-85.76 -116.37,-191.54 11.85,-105.8 83.15,-191.55 159.26,-191.55z"/>
  <path class="fil13" d="M3745.72 3580.89c20.38,-15.65 44.77,-32.22 74,-49.52 96.35,-57.01 180.09,-77.56 261.73,-76.3l-335.73 125.82zm411.08 -246.52c-17.58,-7.51 -36.78,-12.41 -57.63,-13.46l230.86 -168.72c0,0 246.48,-46.96 418.31,-3.48 121.26,30.69 252.02,116.8 344.72,193.56l-100.65 26.06c-67.32,-79.52 -150.76,-112.38 -184.62,-123.07l-0.01 -0.01c-65.3,-71.35 -188.13,-102.58 -387.74,-27.79 -199.61,74.8 -263.25,116.89 -263.25,116.89l0 0.02z"/>
  <path class="fil14" d="M3049.85 5261c0,0 -205.63,-284.24 -254.23,-597.32 -48.6,-313.08 26.04,-667.9 279.46,-914.89l180.52 -151.32c0,0 168.37,20.87 428.73,-60.88 0,0 -16.72,25.86 -29.86,63.24 -22.13,19.69 -59.06,45.34 -114.7,63.3 -102.41,33.05 -104.15,13.05 -104.15,13.05l-85.06 24.35c0,0 -23.44,78.27 -90.26,100.88 -66.82,22.61 -136.25,94.8 -165.76,164.37 -29.51,69.57 2.61,215.67 52.94,266.11 50.33,50.44 91.99,59.14 149.27,33.05 0,0 -164.03,0 -181.39,-121.75 -17.36,-121.75 24.26,-217.85 46.88,-257.42 22.61,-39.57 114.56,-79.15 153.61,-58.27 0,0 -111.46,12.68 -120.05,81.17 -30.04,34.86 -51.8,83.89 -57.88,138.21 -11.84,105.78 40.25,191.54 116.37,191.54 46.69,0 91.56,-32.26 122.02,-81.63l50.03 -13.13c0,0 -61.63,310.48 -52.94,397.44 8.68,86.96 378.39,420.93 378.39,420.93 0,0 302.02,431.36 520.72,487.02 218.7,55.66 378.39,-83.49 468.65,-205.24 90.26,-121.75 173.57,-264.38 208.28,-459.19l371.45 -128.71 223.6 -284.74c0.81,272.3 -80.12,538.56 -190.34,741.31 -65.34,120.18 -202.79,286.28 -300.35,368.7 0,0 -30.39,-6.08 -73.78,-33.05 -43.39,-26.96 -96.76,-32.61 -187.9,37.83 -80.99,62.61 -193.52,145.13 -241.3,212.17 -17.69,24.82 -24.36,40.87 -25.13,73.07 0,0 -148.41,71.32 -412.25,61.75 -263.83,-9.57 -492.07,-124.36 -677.8,-273.94 0,0 59.02,-40.01 12.15,-172.2 -46.86,-132.19 -187.47,-229.6 -232.59,-212.2 -45.13,17.39 -165.36,86.39 -165.36,86.39zm352.26 -262.21c23.22,-61.95 108.13,-53.48 189.67,18.93 81.54,72.42 128.82,181.34 105.61,243.29 -23.22,61.96 -108.13,53.48 -189.67,-18.94 -81.54,-72.41 -128.81,-181.33 -105.61,-243.29zm1909.77 -256.17c33.71,29.05 23.63,128.22 -22.53,221.51 -46.16,93.29 -110.89,145.37 -144.61,116.31 -33.71,-29.04 -23.63,-128.22 22.53,-221.5 46.15,-93.28 110.89,-145.36 144.61,-116.32zm-1556.72 840.99c13.37,-45.02 110.89,-57.73 217.81,-28.39 106.93,29.33 182.77,89.61 169.4,134.63 -13.37,45.02 -110.88,57.74 -217.81,28.4 -106.93,-29.33 -182.77,-89.61 -169.4,-134.64zm-813.96 -1098.91c48.31,-41.53 122.54,13.26 165.81,122.36 43.27,109.11 39.18,231.22 -9.12,272.76 -48.31,41.53 -122.54,-13.26 -165.81,-122.36 -43.27,-109.11 -39.19,-231.22 9.12,-272.76l0 0z"/>
  <path class="fil15" d="M4864.77 5441.6c-21.31,8.92 -45.26,23.2 -72.63,44.35 -60.47,46.75 -138.52,104.59 -194.09,158.81l-457.71 17.08 -0 0c-15.65,-39.55 -81.47,-83.06 -167.36,-106.64 -86.02,-23.6 -165.93,-19.98 -200.86,5.76l-97.51 -46.73c0,0 -84.33,-85.77 -171.14,-172.24 65.71,33.25 162,60.29 263.13,13.97l461.71 201.76c0,0 121.5,-6.96 149.27,-5.22 27.78,1.74 487.19,-110.93 487.19,-110.93l0 0z"/>
  <path class="fil16" d="M3255.62 3597.47l-0.02 0 -180.52 151.32c-253.42,246.99 -328.07,601.81 -279.46,914.89 48.6,313.08 254.23,597.32 254.23,597.32 0,0 120.24,-68.99 165.36,-86.39 45.12,-17.4 185.73,80.01 232.59,212.2 46.87,132.19 -12.15,172.19 -12.15,172.19 185.73,149.59 413.97,264.38 677.8,273.95 263.83,9.57 412.25,-61.75 412.25,-61.75 0.77,-32.21 7.44,-48.26 25.13,-73.07 12.11,-16.98 28.37,-34.96 47.22,-53.36l-457.72 17.08c3.83,9.69 4.67,19.13 2.04,28 -13.37,45.02 -110.88,57.74 -217.81,28.4 -106.93,-29.33 -182.77,-89.61 -169.4,-134.64 2.62,-8.8 8.46,-16.37 16.95,-22.63l-97.51 -46.73c0,0 -232.59,-236.55 -322.85,-320.04 -52.42,-48.48 -166.88,-197.85 -253.65,-314.58l-0.22 0.2c-48.31,41.53 -122.54,-13.26 -165.81,-122.36 -36.39,-91.76 -39.28,-192.71 -10.56,-247.2 -3.08,-24.2 -5.56,-50.68 -7.19,-79.62 -12.15,-217.42 86.79,-448.75 147.54,-544.41 60.75,-95.67 258.68,-286.44 258.68,-286.44l-0 -0.01c-41.35,0.51 -64.23,-2.22 -64.94,-2.31zm2279.2 942.63c-24.52,211.59 -93.41,411.88 -180.66,572.37 -65.34,120.18 -202.79,286.28 -300.35,368.7 0,0 -30.39,-6.08 -73.78,-33.05 -17.65,-10.96 -36.96,-18.41 -59.79,-18.63l245.78 -341.02c35.46,0.61 85.6,-48.1 123.33,-124.35 35.18,-71.11 49.4,-145.63 39.24,-189.91l206.21 -234.12z"/>
  <path class="fil17" d="M3885.58 4305.37l-32.11 1.74c0,0 -59.48,-101.72 -63.2,-250.46 -3.61,-146.24 46.63,-304.56 196.74,-346.56 187.82,-52.56 333.39,195.24 342.06,354.39 0,0 21.4,156.27 -65.03,273.98 -39.07,53.2 -119.73,101.98 -184.03,61.71 0,0 44,-40.25 73.85,-90.39 41.82,-70.26 39.46,-179.96 21.81,-264.47 -21.74,-104.04 -117.31,-218.4 -226.79,-173.24 -152.02,62.69 -118.98,316.83 -63.3,433.3l0 0z"/>
  <path class="fil18" d="M4056.59 4395.82c0,0 -104.15,-20.87 -137.12,-125.23l-13.89 -66.09 26.9 48.7 -2.6 -49.57 18.22 26.09 0.87 -37.4c0,0 20.83,81.76 62.49,82.62 41.66,0.87 92.88,15.66 92.88,15.66l29.51 35.22 -77.26 70.01z"/>
  <path class="fil19" d="M4886.28 4276.68l-11.29 0.44c0,0 -2.6,-36.96 -32.54,-41.75 -29.94,-4.78 -53.81,-7.82 -53.81,-7.82l6.9 -29.11c0,0 7.81,-6.52 46.87,8.7 39.06,15.22 59.45,10.87 59.45,10.87l-15.58 58.67z"/>
  <path class="fil5" d="M4070.23 3922.6c26.58,-6.43 56.84,23.35 67.57,66.5 10.74,43.15 -2.1,83.34 -28.69,89.76 -26.58,6.42 -56.84,-23.35 -67.58,-66.5 -10.74,-43.15 2.11,-83.33 28.69,-89.76z"/>
  <path class="fil5" d="M4831.18 3859.81c23.89,-7.3 52.41,21.45 63.72,64.21 11.31,42.76 1.12,83.35 -22.76,90.65 -23.89,7.3 -52.42,-21.45 -63.73,-64.22 -11.31,-42.76 -1.12,-83.35 22.77,-90.65z"/>
  <path class="fil20" d="M4651 3917.54c0,0 -8.68,-62.61 32.11,-146.97 40.79,-84.36 173.58,-187.85 279.46,-64.35 105.88,123.5 131.92,275.69 122.37,403.53 -9.55,127.84 -70.3,220.89 -159.69,225.24l-40.79 -40c0,0 42.53,-53.05 53.81,-137.41 11.28,-84.36 -3.47,-195.68 -40.79,-267.86 -37.32,-72.18 -177.04,-136.54 -246.48,27.82l0 0z"/>
  <path class="fil21" d="M3976.19 4683.29c0,0 211.29,97.91 401.83,121.78 115.61,14.48 297.86,10.45 401.83,-19.15 0,0 -28.86,129.38 -285.49,156.04 -175.27,18.19 -434.76,-108.09 -518.17,-258.67z"/>
  <path class="fil22" d="M4425.33 5219.03l-39.49 -151.33c0,0 171.84,-8.69 170.1,182.63 0,0 -90,66.76 -215.33,49.39 -142.91,-19.82 -236.33,-99.39 -315.81,-221.58 0,0 178.35,-160.02 400.53,140.89l0 0z"/>
  <path class="fil23" d="M3049.85 5261c0,0 -205.63,-284.24 -254.23,-597.32 -48.6,-313.08 26.04,-667.9 279.46,-914.89l180.52 -151.32c0,0 12.38,1.53 35.57,2.14l-0 0c-278.32,208.25 -450.13,473.3 -465.57,825.89 -9.59,218.9 45.8,414.57 138.35,617.74 43.65,95.8 94.56,165.6 120.58,198.21 -20.48,11.4 -34.68,19.56 -34.68,19.56zm1930.16 -2002.48c88.7,58.41 164.75,125.33 205.74,170.22 74.64,81.75 241.26,276.56 329.78,674.87 79.69,358.57 -15.06,739.69 -161.38,1008.85 -65.34,120.18 -202.79,286.28 -300.35,368.7 0,0 -30.39,-6.08 -73.78,-33.05 -6.38,-3.96 -12.98,-7.46 -19.88,-10.33l0 -0c308.35,-226.06 471,-614.05 503.98,-772.33 32.98,-158.28 22.56,-271.33 19.09,-382.65 -3.47,-111.32 -48.61,-299.16 -48.61,-299.16 -39.56,35.76 -78.11,29.57 -124.97,-40.01 -46.87,-69.57 -18.22,-283.51 -30.38,-325.26 -12.15,-41.75 -151.01,-190.45 -199.61,-228.72 -26.62,-20.96 -67.83,-81.07 -99.65,-131.14zm-422.73 2430.98c-2.26,2.9 -4.42,5.78 -6.44,8.63 -17.69,24.82 -24.36,40.87 -25.13,73.07 0,0 -148.41,71.32 -412.25,61.75 -263.83,-9.57 -492.07,-124.36 -677.8,-273.94 0,0 23.34,-15.84 29,-60.48 32.15,20.74 82.52,51.99 157.84,95.73 152.82,88.76 222.79,96.07 249.78,106.27l2.44 0.98 0.33 0.14 0.69 0.27c15.31,6.11 31.67,11.62 48.82,16.32 31.9,8.75 62.95,13.76 91.19,15.28 22.75,6.69 48.88,12.59 78.87,17.27 211.76,33.04 462.65,-61.3 462.65,-61.3l0 0z"/>
  <path class="fil24" d="M2121.54 4852.48c0,0 -13.89,-78.27 -67.69,-114.8l197.87 -104.36c0,0 0,60.87 59.02,132.19 0,0 -107.61,8.7 -189.2,86.97z"/>
  <path class="fil25" d="M2170.59 4906.83l-12.15 -13.91c0,0 51.2,-71.31 111.96,-80.88 60.75,-9.57 71.17,33.91 32.98,40 -38.19,6.09 -108.48,20 -132.78,54.79z"/>
  <path class="fil26" d="M2820.57 5706.93l-48.61 -83.48c0,0 60.76,-57.4 53.81,-151.33 -6.94,-93.93 -41.66,-175.67 -41.66,-175.67l71.17 12.17c0,0 140.6,194.81 -34.71,398.31l0 0z"/>
  <path class="fil27" d="M2783.87 5609.84c17.31,-22.23 46.85,-70.66 41.9,-137.71 -3.82,-51.71 -16.06,-99.72 -26.29,-132.44l48.85 -2.36c0,0 36.46,100.01 30.38,185.24 -6.07,85.23 -60.75,134.8 -60.75,134.8l-34.08 -47.53z"/>
  <path class="fil28" d="M2742.87 5512.37c0,0 -11.5,-62.88 -36.13,-106.48 -20.89,-36.99 -76.69,-77.89 -76.69,-77.89l52.07 -74.8c0,0 79.85,142.63 60.75,259.17z"/>
  <path class="fil29" d="M2306.27 5771.96l66.86 -27.3c10.58,-4.32 28.46,17.81 9.51,34.69l-76.37 -7.39z"/>
  <path class="fil30" d="M2762.76 5730.21c0,0 -27.34,-0 -69.86,13.48 -42.53,13.49 -108.49,45.23 -108.49,45.23l-5.21 -16.96 151.88 -68.27 -12.59 -26.09 -140.59 65.23 -16.49 -33.05 144.5 -62.61 -26.9 -50.44c0,0 -40.79,64.8 -88.09,76.97 -47.3,12.17 -69.43,14.79 -69.43,14.79l3.47 -20c0,0 108.05,-53.05 123.67,-83.06l5.21 -17.39 24.74 -6.64c0,0 65.96,127.53 84.18,168.83l0 0z"/>
  <path class="fil31" d="M2718.5 5677.59l-140.59 65.23 -7.03 -14.08 140.26 -58.11 7.37 6.96zm-54.12 -60.69c-16.01,20.1 -43.41,49.05 -73.45,56.78 -47.3,12.17 -69.43,14.79 -69.43,14.79l3.47 -20c0,0 66.27,-32.54 102.52,-61.06l36.9 9.49z"/>
  <path class="fil32" d="M2519.78 5974.12l-39.06 -45.22c0,0 22.57,-40.88 103.28,-77.41 80.71,-36.52 138.85,-62.61 177.05,-62.61 38.19,0 70.3,29.57 43.39,79.14 0,0 -80.71,-31.31 -284.66,106.1z"/>
  <path class="fil33" d="M5199.59 5467.66l201.78 -251.77 259.06 6.52c0,0 -22.13,180.02 53.38,293.51 0,0 -179.65,58.7 -514.22,-48.27z"/>
  <path class="fil5" d="M5383.04 5238.77l18.33 -22.88 259.06 6.52c0,0 -1.17,9.56 -2.06,25.65 -153.66,5.67 -238.21,-3.33 -275.34,-9.3z"/>
  <path class="fil34" d="M5199.59 5467.66l170.99 -213.35 124.52 17.68 -67.41 84.77 233.23 -5.72c5.8,54.09 20.18,115.72 52.89,164.89 0,0 -179.65,58.7 -514.22,-48.27z"/>
  <path class="fil35" d="M5199.59 5467.66l109.69 -136.86 136.35 29.89 39.06 31.31 181.14 -5.92c7.78,44.49 22.17,91.05 47.98,129.84 0,0 -179.65,58.7 -514.22,-48.27z"/>
  <path class="fil36" d="M5199.59 5467.66l62.51 -78c65.07,19.1 198.21,45.94 412.31,35.51 8.54,31.81 21.09,63.24 39.4,90.76 0,0 -179.65,58.7 -514.22,-48.27z"/>
  <path class="fil37" d="M5199.59 5467.66l27.62 -34.46c41.43,18.4 113.3,43.64 214.52,55.33 113.53,13.13 207.14,6.29 256.46,0.37 4.67,9.32 9.86,18.37 15.62,27.02 0,0 -179.65,58.7 -514.22,-48.27z"/>
  <path class="fil38" d="M5956.68 5559.88c0,0 -83,7 -138.22,-33.61 -83.76,-61.58 -110.17,-249.28 -90.6,-365.51 7.19,-42.77 18.57,-56.16 40.06,-92.68l48.15 121.34c0,0 3.91,281.78 140.61,370.46z"/>
  <path class="fil5" d="M5725.12 5179.99c0.78,-6.59 1.69,-13.02 2.74,-19.22 7.19,-42.77 18.57,-56.16 40.06,-92.68l8.49 21.41c-14.31,17.55 -34.36,47.09 -51.28,90.49z"/>
  <path class="fil39" d="M6232.62 5587.3c0,0 -136.7,24.79 -235.63,-88.7 -98.94,-113.5 -101.54,-203.5 -101.54,-203.5l213.5 7.83c0,0 -84.61,166.98 123.68,284.38z"/>
  <path class="fil40" d="M6172.73 5331.62c0,0 96.33,-39.14 226.51,-39.14 130.19,0 187.46,11.74 229.12,49.57 0,0 40.36,148.32 -166.56,198.55 -82.08,19.93 -175.24,0.69 -243.45,-49.9 -49.01,-36.37 -71.24,-101.33 -45.62,-159.08z"/>
  <path class="fil41" d="M6172.73 5331.62c0,0 25.36,-10.3 67.63,-20.33 3.09,41.59 22.31,101.28 106.81,103.82 130.18,3.91 124.98,-45.66 124.98,-45.66 0,0 48.17,10.43 55.98,0 7.81,-10.44 10.41,-44.35 100.24,-27.4 0,0 40.36,148.32 -166.56,198.55 -82.08,19.93 -175.24,0.69 -243.45,-49.9 -49.01,-36.37 -71.24,-101.33 -45.62,-159.08l0 0z"/>
  <path class="fil42" d="M6506.63 5374.02c9.75,0.34 18.53,-0.61 21.5,-4.57 7.81,-10.44 10.41,-44.35 100.24,-27.4 0,0 40.36,148.32 -166.56,198.55 -82.08,19.93 -175.24,0.69 -243.45,-49.9 -25.54,-18.95 -43.8,-45.66 -51.81,-75.07 38.43,36.93 111.52,86.66 207.98,58.17 77.33,-22.83 114.38,-65.11 132.12,-99.79l0 0z"/>
  <path class="fil40" d="M6105.02 5045.94c0,0 -68.99,91.32 -22.13,213.94 0,0 -199.17,19.56 -255.15,-206.11 -55.98,-225.68 132.77,-302.65 108.04,-418.74 -24.74,-116.1 -89.83,-152.62 -100.9,-222.42 -11.06,-69.79 57.28,-114.79 160.78,-86.09 103.49,28.7 164.03,191.77 171.19,231.56 7.16,39.78 13.01,112.18 -9.12,156.53 -22.13,44.35 -95.69,107.63 -94.39,204.81 1.3,97.19 41.69,126.53 41.69,126.53z"/>
  <path class="fil43" d="M6105.02 5045.94c0,0 -68.99,91.32 -22.13,213.94 0,0 -180.56,17.73 -246.16,-175.38 6.17,-13.93 10.3,-34.59 9.2,-65.28 -3.5,-97.22 32.55,-182.63 32.55,-182.63 0,0 28.64,177.42 49.47,100.45 20.83,-76.96 98.94,-185.24 98.94,-185.24l55.98 -5.22c46.86,-78.27 54.68,-169.59 54.68,-169.59 17.61,53.61 15.61,111.47 9.23,155.87 -29.03,43.09 -84.57,101.98 -83.44,186.55 1.3,97.19 41.69,126.53 41.69,126.53l0 0z"/>
  <path class="fil44" d="M6105.02 5045.94c0,0 -68.99,91.32 -22.13,213.94 0,0 -85.91,8.43 -160.74,-49.73l121.66 -3.07c0,0 -20.83,-83.49 27.34,-185.24l33.88 24.1z"/>
  <path class="fil45" d="M5838.23 4427.8c11.77,41.33 42.26,72.76 67.71,122.72 27.64,30.58 59.2,72.64 66.22,111.29 0,0 -5,-175.47 -133.93,-234.02z"/>
  <path class="fil5" d="M6137.54 4577c9.63,29.33 13.4,59.93 13.79,88.89 4.65,4.09 10.81,9.2 17.61,14.05 8.12,-41.55 3.4,-91.33 -2.1,-121.88 -7.16,-39.79 -67.7,-202.85 -171.19,-231.56 -102.39,-28.39 -170.38,15.36 -161.1,83.88 6.19,-14.5 20.97,-37.31 55.61,-53.83 54.67,-26.09 186.16,6.53 217.4,95.23 15.31,43.45 24.05,93.8 28.99,133.86 0.72,-5.55 0.99,-8.65 0.99,-8.65z"/>
  <path class="fil40" d="M6632.71 4965.75c0,0 -66.39,-27.39 -141.9,-28.7 -75.5,-1.31 -180.96,11.74 -274.68,41.74 -93.73,30 -97.64,-32.61 -84.62,-100.45 13.02,-67.83 130.19,-181.33 275.98,-194.37 145.8,-13.05 309.83,96.54 225.21,281.77z"/>
  <path class="fil46" d="M6632.71 4965.75c0,0 -66.39,-27.39 -141.9,-28.7 -75.5,-1.31 -180.96,11.74 -274.68,41.74 -46.31,14.82 -70.69,7.03 -81.93,-12.82 10.2,-34.95 31.99,-98.89 63.7,-135.89 0,0 9.11,126.54 49.47,112.19 40.35,-14.35 158.82,-58.71 204.38,-50.88 45.57,7.83 136.69,28.7 136.69,28.7l35.61 -101.28c5.41,8.19 9.26,16.37 11.26,24.32 7.77,30.92 9.35,65.56 8.87,93.48 7.17,-21.61 10.82,-42.04 11.48,-61.24l0.04 0.1c-0.98,27.6 -8.14,57.76 -22.99,90.28l0 0z"/>
  <path class="fil5" d="M6136.74 4860.93c27.09,-68.25 136.84,-164.98 270.76,-176.95 137.98,-12.35 292.24,85.15 236.69,252.63 0.48,-27.93 -1.1,-62.56 -8.87,-93.48 -16.43,-65.39 -157.52,-146.11 -270.78,-123.93 -73.9,14.47 -169.94,90.57 -227.8,141.73z"/>
  <path class="fil40" d="M6625.22 5259.93c0,0 -206.99,-45.66 -449.13,6.52 0,0 -35.15,-63.92 -40.35,-143.5 -5.2,-79.57 208.29,-131.76 305.92,-136.97 86.17,-4.61 184.52,8.07 219.85,64.02 35.57,56.35 19.78,169.35 -36.28,209.93z"/>
  <path class="fil47" d="M6625.22 5259.93c0,0 -206.99,-45.66 -449.13,6.52 0,0 -15.63,-28.45 -27.6,-71.01l51.03 -107.7c0,0 1.3,97.83 69,105.66 67.69,7.83 200.48,2.62 238.23,-15.65 37.75,-18.27 95.03,-84.8 95.03,-84.8 0,0 115.88,20.88 23.44,166.98l0 0z"/>
  <path class="fil5" d="M6335.68 5001.88c281.96,-16.7 312.96,58.45 327.29,97.59 5.31,14.53 2.74,34.25 -2.6,53.33 3.09,24.66 -4.79,59.14 -35.15,107.13 56.06,-40.58 71.86,-153.57 36.28,-209.93 -35.33,-55.95 -133.67,-68.63 -219.85,-64.02 -28.3,1.51 -66.35,6.97 -105.98,15.9z"/>
  <path class="fil40" d="M4887.27 5976.1c0,0 -105.44,-220.47 -195.28,-246.56l71.6 -123.93 118.46 -88.71c0,0 119.77,-20.87 300.72,259.6 0,0 -182.25,33.91 -242.14,190.45l-53.37 9.14z"/>
  <path class="fil5" d="M4878.98 5519.21l3.08 -2.31c0,0 119.77,-20.87 300.72,259.6 0,0 -10.43,1.94 -27.11,7.04 -68.21,-140.03 -209.04,-228.31 -276.69,-264.33z"/>
  <path class="fil48" d="M5018.61 5857.43l0 -0c-50.91,-152.58 -111.81,-185.28 -111.81,-185.28 24.73,37.83 30.59,74.18 30.59,74.18 -39.71,-87.58 -173.8,-140.71 -173.8,-140.71l-71.6 123.93c89.83,26.09 195.28,246.56 195.28,246.56l53.37 -9.14c17.83,-46.59 46.5,-82.32 77.97,-109.53z"/>
  <path class="fil49" d="M4887.27 5976.1c0,0 -105.44,-220.47 -195.28,-246.56l53.55 -92.68c32.74,12.89 86.09,38.7 128.71,82.25 33.1,33.82 77.2,105.88 113.1,169.67 -18.71,21.84 -35.04,47.68 -46.71,78.18l-53.37 9.14z"/>
  <path class="fil50" d="M4887.27 5976.1c0,0 -105.44,-220.47 -195.28,-246.56l19.72 -34.13c40.76,19.49 101.34,56.12 145.61,116.32 41.59,56.57 63.26,116.09 74.21,156.8l-44.27 7.58z"/>
  <path class="fil5" d="M4880.1 6048.47c0,0 -27.34,148.71 48.17,136.97 75.5,-11.74 72.9,-146.1 82.02,-204.8 9.11,-58.7 122.37,-170.89 240.84,-161.76 0,0 -106.76,62.62 -141.9,172.19 -25.13,78.36 -55.59,150.71 -107.56,206.57l-151.5 96.08c0,0 -80.71,-182.63 29.94,-245.25z"/>
  <path class="fil51" d="M4880.1 6048.47c0,0 -1.23,6.71 -2.45,17.15 -40.13,65.55 6.7,153.85 58.41,138.08 59.88,-18.26 85.92,-163.06 92.43,-202.19 6.51,-39.14 16.93,-52.19 54.68,-99.15 37.75,-46.96 167.94,-83.48 167.94,-83.48 0,0 -106.76,62.62 -141.9,172.19 -25.13,78.36 -55.59,150.71 -107.56,206.57 -33.3,35.79 -66.33,54.93 -104.21,73.47 -27.24,-17.71 -59.16,-48.91 -57.71,-97.41 2.52,-83.97 40.36,-125.22 40.36,-125.22z"/>
  <path class="fil52" d="M4827.99 6588.53l-15.62 -177.41 48.17 -83.49c0,0 39.06,3.91 83.32,-31.31 44.26,-35.22 92.41,-82.17 230.41,-283.07 127,-184.89 296.98,-259.27 494.75,-208.96 66.13,16.83 153.22,63.39 193.91,115.04 0,0 -249.04,-70.07 -481.53,164.5 -7.01,7.07 -14,14.41 -20.96,22.04 -7.57,8.3 -15.06,16.45 -22.46,24.47 -225.52,244.36 -373.86,364.73 -509.98,458.19l0 0z"/>
  <path class="fil53" d="M4838.62 6365.61l21.91 -37.98c0,0 20.98,2.1 49.61,-10.65 148.36,-43.28 225.43,-248.5 329.85,-353.33 66.38,-66.63 175.06,-139.98 297.39,-141.63 150.23,-2.03 325.54,97.3 325.54,97.3 0,0 -249.04,-70.07 -481.53,164.5 -7.01,7.07 -14,14.41 -20.96,22.04 -7.57,8.3 -15.06,16.45 -22.46,24.47 -41.56,45.03 -80.49,85.83 -117.2,123.05 -170.93,136.65 -368.12,292.65 -368.12,292.65l-14.02 -180.43z"/>
  <path class="fil54" d="M4900.89 6820.73c0,0 -17.57,-3.26 -31.89,-50.22 -14.32,-46.97 -23.43,-125.89 -23.43,-125.89 0,0 157.51,-99.14 220,-154.58 62.48,-55.44 181.59,-190.46 283.79,-303.3 102.19,-112.84 195.11,-202.08 348.23,-236.13 131.48,-29.23 224.33,23.49 250.84,95.13 7.15,19.36 9.83,42.91 9.25,68.5 -64.03,-84.83 -254.91,-58.65 -392.9,33.96 -138,92.62 -134.07,123.93 -308.52,314.39 -174.44,190.46 -343.66,287.01 -352.12,305.27 -8.46,18.26 -3.24,52.87 -3.24,52.87z"/>
  <path class="fil5" d="M4845.65 6645.37l-0.01 -0.05 -0 -0.02 -0.08 -0.68c0,0 157.51,-99.14 220,-154.58 62.48,-55.44 181.59,-190.46 283.79,-303.3 102.19,-112.84 195.11,-202.08 348.23,-236.13 131.48,-29.23 224.33,23.49 250.84,95.13 2.81,7.61 4.93,15.86 6.43,24.63 -0.57,-1.92 -19.51,-63.56 -129.72,-93.1 -111.96,-30 -286.39,57.41 -338.46,99.15 -97.62,78.26 -211.35,218.25 -297.42,319.09 -102.31,119.86 -217.43,191.93 -275.38,231.42 -63.06,42.96 -67.96,19.93 -68.21,18.44z"/>
  <path class="fil55" d="M3543.55 5834.11c0,0 92.43,79.57 285.1,112.19 0,0 -149.71,229.59 -282.5,276.56 0,0 -108.06,-27.4 -197.87,-44.35 -89.83,-16.96 -111.96,15.65 -111.96,15.65 0,0 -46.87,-176.11 124.98,-190.46l-55.98 126.54c118.05,-82.02 162.06,-184.08 238.23,-296.12z"/>
  <path class="fil50" d="M3782.34 5937.17c14.74,3.31 30.17,6.39 46.31,9.12 0,0 -149.71,229.59 -282.5,276.56 0,0 -18.04,-4.58 -45.52,-11.15 39.96,-29.32 83.91,-62.07 110.59,-83.46 44.46,-35.65 131.66,-141.91 171.11,-191.07z"/>
  <path class="fil56" d="M3595.68 5868.31c19.93,11.07 45.62,23.66 77.26,35.89 -27.43,33.42 -76.03,89.61 -116.37,120.37 -51.85,39.53 -107.59,59.5 -140.2,42.98 19.07,-20.8 40.25,-42.15 58.19,-56.02 29.59,-22.88 85.54,-95.27 121.13,-143.21z"/>
  <path class="fil5" d="M3248.85 6184.29c-9.23,4.99 -12.53,9.86 -12.53,9.86 0,0 -46.87,-176.11 124.98,-190.46 0,0 -89.82,66.53 -114.56,121.31 -8.61,19.08 -5.54,40.05 2.11,59.28z"/>
  <path class="fil40" d="M3543.55 5834.11c0,0 17.19,14.78 52.13,34.2 -35.59,47.94 -91.53,120.33 -121.13,143.21 -45.56,35.22 -111.96,118.7 -111.96,118.7l-64.98 43.42c-4.7,0.09 -9.07,0.35 -13.13,0.76 3.89,-9.91 10.76,-25.9 20.84,-44.2l-0.01 0.02c118.05,-82.02 162.06,-184.08 238.23,-296.12z"/>
  <path class="fil57" d="M3370.34 5959.93c0,0 -146.88,-33.16 -197.23,88.97 -34.37,83.4 -10.44,202.56 54.03,263.24 -37.61,48.63 -98.44,164.34 -95.03,230.9l-84.62 50.87 -3.9 -30 -32.55 90.02c0,0 -7.81,-90.02 10.41,-249.17 0,0 -53.4,88.7 -35.17,199.59l-19.53 0c0,0 36.09,114.18 87.17,178.38l-0.01 -0c-58.03,-23.14 -100.8,-115.15 -103.41,-211.68 -2.6,-96.54 57.28,-226.98 57.28,-226.98 -36.46,30 -61.19,124.58 -64.44,166.32 -3.25,41.74 -16.92,132.41 29.94,207.43 46.87,75.01 101.26,87.07 101.26,87.07l0.01 -0c2.23,1.98 4.48,3.85 6.75,5.58 65.09,49.57 324.16,57.39 527.24,-15.66l-19.51 103.06c0,0 -139.31,44.46 -346.27,37.64 -150.44,-4.93 -248.94,-52.41 -311.67,-178.28 -54.88,-110.09 -46.49,-213.81 -11.19,-332.91 33.63,-113.45 90.44,-287.85 146.29,-374.09 55.84,-86.22 216.54,-173.93 304.15,-90.29l0 0z"/>
  <path class="fil5" d="M2945.73 6648.65c5.1,23.31 13.67,46.92 27.57,69.16 46.87,75.01 101.26,87.07 101.26,87.07l0.01 -0c2.23,1.98 4.48,3.85 6.75,5.58 65.09,49.57 324.16,57.39 527.24,-15.66l-6.01 31.77c-125.49,38.05 -337.96,72.84 -494.83,20.01 -156.87,-52.83 -179.65,-187.19 -179.65,-187.19l17.67 -10.73zm-46.53 -138.44c4.89,-27.91 11.96,-56.43 20.7,-85.9 33.63,-113.45 90.44,-287.85 146.29,-374.09 32.22,-49.74 99.35,-99.98 167.2,-117.52 -61.37,34.25 -122.76,80.24 -154.07,129.51 -79.26,124.75 -147.58,337 -180.12,448z"/>
  <path class="fil58" d="M3180.59 6387.22c-27.1,52.01 -50.63,113.74 -48.48,155.83l-84.62 50.87 -3.9 -30 76.15 -275.3 -72.9 -5.22 -69.17 139.53c14.81,-45.48 30.12,-78.85 30.12,-78.85 -21.31,17.53 -38.61,57.12 -49.96,95.33 0,0 68.92,-320.98 182.72,-396.04 0,0 -75.51,110.88 32.55,286.99l7.48 56.86z"/>
  <path class="fil59" d="M2950.53 6571.49l20.78 32.86 14.97 0c-11.07,-67.35 4.28,-126.52 18.04,-162.59l-25.48 -21.2 -1.18 2.37c-14.46,44.43 -28.44,100.42 -27.15,148.13 0,0.15 0.01,0.29 0.02,0.44z"/>
  <path class="fil60" d="M2971.31 6604.35l-20.78 -32.86c2.72,96.38 45.44,188.13 103.4,211.24 -51.09,-64.2 -87.17,-178.38 -87.17,-178.38l4.56 0z"/>
  <path class="fil61" d="M3021.45 6404.76c-18.23,159.15 -10.41,249.17 -10.41,249.17l32.55 -90.02 76.15 -275.3 -72.9 -5.22 -67.99 137.16 25.48 21.2c8.89,-23.32 17.13,-36.99 17.13,-36.99z"/>
  <path class="fil62" d="M3594.6 6723.26c0,0 -141.25,85.85 -359.33,74.84 -79.66,-4.01 -130.31,-7.51 -178.32,-89.19 0,0 -27.3,-90.82 177.11,-126.15 133.6,-23.06 300.01,0.77 360.54,140.5z"/>
  <path class="fil63" d="M3585.01 6728.58c-13.14,6.94 -39.49,19.7 -77.01,32.49 -118.45,12.35 -301.2,28.22 -330.02,12.04 -43.2,-24.26 -105.45,-70.44 -89.83,-103.06 15.63,-32.61 145.91,-87.29 281.19,-69.14 107.87,14.47 187.75,95.45 215.67,127.67l0 0z"/>
  <path class="fil64" d="M3135.01 6760.06c-33.17,-17.44 -59.46,-58.7 -74.19,-86.37 -8.39,20.19 -3.87,35.21 -3.87,35.21 48.02,81.69 98.67,85.19 178.32,89.19 115.78,5.85 209.91,-15.61 272.73,-37.03 -118.45,12.35 -301.2,28.22 -330.02,12.04 -2.97,-1.66 -6.03,-3.44 -9.14,-5.3 -13.18,-0.67 -24.85,-3.03 -33.82,-7.74l0 0z"/>
  <polygon class="fil65" points="3455.93,6483.17 3447.46,6514.48 3171.48,6513.82 3190.36,6470.77 "/>
  <path class="fil66" d="M3480.67 6412.72l-16.93 31.31c0,0 -218.7,-8.48 -234.33,-23.48 -15.63,-15 -12.37,-33.92 1.3,-35.87 13.67,-1.96 149.71,28.7 249.95,28.05l0 0z"/>
  <path class="fil67" d="M3582.36 6292.19c0,0 -14.96,54.78 -87.86,71.74 -72.91,16.96 -216.76,-16.31 -238.89,-49.57 -22.14,-33.26 44.26,-91.32 106.1,-65.88 61.84,25.44 91.78,84.15 220.65,43.71z"/>
  <path class="fil68" d="M3572.63 6312.24c-11.23,17.43 -34.12,41.46 -78.13,51.7 -72.91,16.96 -216.76,-16.31 -238.89,-49.57 -0.31,-0.47 -0.6,-0.94 -0.88,-1.42 17.18,-21.14 38.69,-43.52 65.31,-50.76 45.56,-12.39 100.24,61.31 144.5,67.19 31.86,4.23 80.9,-8.78 108.08,-17.13z"/>
  <path class="fil69" d="M2883.93 3847.53c0,0 -141.89,-472.22 -121.06,-623.55 19.35,-140.57 49.94,-347.56 245.15,-538.34 87.48,-85.49 267.45,-200.5 370.61,-252.19l-171.83 136.98c0,0 -83.31,127.84 -62.48,328.73 20.82,200.89 151.02,548.55 151.02,548.55 0,0 -389.24,315.04 -411.4,399.83z"/>
  <path class="fil70" d="M3160.13 2685.59c-14.56,54.93 -24.74,127.54 -15.82,213.57 20.82,200.89 151.02,548.55 151.02,548.55 0,0 -96.75,78.31 -196.52,167.34 -57.92,-124.54 -230.21,-520.07 -154.96,-667.59 60.07,-117.79 158.01,-212.22 216.28,-261.86z"/>
  <path class="fil71" d="M2883.93 3847.53c0,0 -141.89,-472.22 -121.06,-623.55 19.35,-140.57 49.94,-347.56 245.15,-538.34 87.48,-85.49 267.45,-200.5 370.61,-252.19l-171.83 136.98c0,0 -217.6,134.18 -321.53,354.85 -103.93,220.67 -67.69,417.44 -42.95,536.15 24.74,118.72 72.9,294.82 72.9,294.82l376.78 -317.55c2.14,5.85 3.33,9 3.33,9 0,0 -389.24,315.04 -411.4,399.83z"/>
  <path class="fil72" d="M3375.37 3393.61c0,0 -177.04,-384.83 -147.1,-614.43 29.94,-229.59 113.26,-273.95 187.47,-314.39 74.2,-40.44 294.21,-150.01 584.52,-127.84 290.3,22.18 464.75,100.44 567.59,180.02 0,0 315.04,-150.02 512.92,-101.75 0,0 264.28,2.6 363.22,226.98 98.94,224.38 -139.3,480.07 -158.82,497.02 -19.53,16.96 -139.29,135.68 -139.29,135.68 0,0 -64.15,-85.22 -138.81,-149.27 -88.74,-76.11 -299.87,-149.46 -409.25,-149.46 0,0 109.34,-217.84 273.37,-324.81 164.03,-106.96 421.79,-87.4 469.96,-35.22 0,0 -20.84,-73.05 -225.22,-100.44 -162.5,-21.78 -329.13,112.3 -469.77,233.73 -148.39,128.12 -281.27,274.49 -431.27,394.81 -274.1,219.93 -561.72,377.34 -918.89,402.02l397.05 -271.34 458.24 -279.16 -782.39 519.2c0,0 100.25,-31.31 347.59,-144.8 247.34,-113.49 443.91,-300.04 596.23,-430.48 152.31,-130.45 281.19,-300.04 455.63,-409.61 0,0 -212.19,87.41 -308.53,173.5l-4.6 2.95c-4.36,-10.39 -10.65,-19.72 -18.52,-27.48 9.74,-19 12.44,-40.35 10.83,-61.53 -0.74,-9.73 -2.39,-19.44 -4.7,-28.89 -0.15,-0.61 -0.3,-1.22 -0.46,-1.83 -10.87,-42.81 -40.93,-71.37 -82.53,-83.84 -17.75,-5.31 -40.44,-8.22 -59.1,-6.61 -2.17,0.19 -4.02,0.53 -6.12,1.14l-222.63 64.57c-7.12,2.06 -12.97,6.22 -17,11.83 -2.74,3.83 -4.64,8.33 -5.51,13.31 -0.21,1.19 -0.35,2.37 -0.43,3.54 -18.02,-2.96 -36.61,-1.48 -55,3.37l-251.33 66.21c-11.67,3.07 -20.1,11.72 -22.89,23.49 -1.28,5.41 -1.2,10.76 0.14,15.75 1.58,5.89 4.91,11.26 9.83,15.58 4.44,3.94 8.8,8.67 12.72,13.1 0.65,0.73 1.32,1.43 2.01,2.09 7.52,8.78 14.6,18.48 20.15,26.81 5.41,10.45 11.68,41.65 14.54,54.58 7.63,34.57 14.15,69.54 20.41,104.39 10.44,58.17 20.19,116.7 29.07,175.14 0.69,4.57 2.22,8.72 4.51,12.35 -165.67,105.44 -332.91,211.55 -457.82,290.04l0 0z"/>
  <path class="fil73" d="M3296 3546.27l397.05 -271.34 458.24 -279.16 -782.39 519.2c0,0 19.38,-6.05 62.08,-22.46 -55.05,31.63 -134.97,53.77 -134.97,53.77z"/>
  <path class="fil74" d="M5095.69 3214.26c-24.32,-27.49 -55.43,-60.15 -88.62,-88.62 -88.74,-76.11 -299.87,-149.46 -409.25,-149.46 0,0 109.34,-217.84 273.37,-324.81 154.9,-101.02 393.37,-89.18 459.99,-43.6l9.97 8.38c0,0 93.09,54.82 72.26,189.19 -20.82,134.36 -151.67,318.97 -254.51,388.11 0,0 -38.56,-2.14 -63.21,20.81z"/>
  <path class="fil75" d="M4567.85 2516.98l-48.15 14.39c-205.69,-138.28 -357.19,-174.53 -557.18,-170.89 -199.98,3.64 -390.54,50.87 -529.84,126.54 -139.3,75.66 -210.9,245.25 -156.22,497.02 44.45,204.66 105.24,346.38 126.43,392.26 121.37,-76.4 276.51,-174.85 430.3,-272.72 -2.29,-3.63 -3.81,-7.78 -4.51,-12.35 -8.88,-58.44 -18.62,-116.97 -29.07,-175.14 -6.26,-34.85 -12.78,-69.81 -20.41,-104.39 -2.85,-12.94 -9.13,-44.13 -14.54,-54.58 -5.54,-8.33 -12.63,-18.03 -20.15,-26.81 -0.69,-0.66 -1.36,-1.36 -2.01,-2.09 -3.92,-4.43 -8.28,-9.16 -12.72,-13.1 -4.91,-4.32 -8.24,-9.69 -9.83,-15.58 -1.34,-4.98 -1.42,-10.34 -0.14,-15.75 2.79,-11.76 11.22,-20.42 22.89,-23.49l251.33 -66.21c18.39,-4.85 36.98,-6.32 55,-3.37 0.08,-1.17 0.22,-2.35 0.43,-3.54 0.87,-4.98 2.76,-9.48 5.51,-13.31 4.03,-5.61 9.88,-9.76 17,-11.83l222.63 -64.57c2.11,-0.61 3.95,-0.96 6.12,-1.14 18.66,-1.61 41.35,1.3 59.1,6.61 41.6,12.47 71.66,41.03 82.53,83.84 0.15,0.61 0.31,1.22 0.46,1.83 2.3,9.45 3.96,19.16 4.7,28.89 1.61,21.18 -1.09,42.53 -10.83,61.53 7.87,7.76 14.16,17.09 18.52,27.48l4.6 -2.94c86.23,-77.06 265.29,-155.18 301.9,-170.72 148.28,-88.52 294.33,-109.76 294.33,-109.76 -180.95,-15.65 -488.2,93.89 -488.2,93.89l0 0z"/>
  <path class="fil76" d="M5115.93 2515.7c204.38,27.4 225.22,100.44 225.22,100.44 0,0 56.4,33.22 71.58,111.31 29.92,-108.56 -106.73,-196.7 -222.59,-214.96 -45.29,-7.14 -83.82,-4.71 -113.95,0.9 13.26,-0.2 26.52,0.54 39.74,2.31z"/>
  <path class="fil77" d="M3402.9 3376.3c-21.19,-45.88 -81.98,-187.6 -126.43,-392.26 -54.68,-251.77 16.93,-421.37 156.22,-497.02 139.3,-75.66 329.86,-122.89 529.84,-126.54 199.98,-3.64 351.49,32.61 557.18,170.89l48.15 -14.39c-102.85,-79.58 -277.3,-157.84 -567.59,-180.02 -290.31,-22.17 -510.31,87.4 -584.52,127.84 -74.2,40.44 -157.53,84.8 -187.47,314.39 -29.94,229.59 147.1,614.43 147.1,614.43 8.96,-5.63 18.15,-11.41 27.53,-17.31l0 0z"/>
  <path class="fil78" d="M3457.42 2426.44l-30.59 -3.26c0,0 7.81,-66.54 88.52,-95.88 80.72,-29.35 126.93,-12.4 126.93,-12.4l-6.02 19.41c0,0 -136.53,-22.01 -178.83,92.13z"/>
  <path class="fil79" d="M3946.09 3053.81l-85.93 32.61c0,0 -48.17,-315.7 -69,-347 -20.82,-31.31 -40.35,-48.26 -40.35,-48.26l251.33 -66.22c66.27,-17.45 104.71,26.53 123.59,91 28.64,97.84 -76.81,164.37 -76.81,164.37l-126.28 32.61 23.44 140.89zm-35.82 -225.12l-14.95 -103.61 105.11 -24.04c61.88,-14.16 88.87,82.31 6.85,103.61 -35.15,9.13 -97,24.04 -97,24.04z"/>
  <path class="fil79" d="M4190.2 2962.51c0,0 -37.76,-317.64 -109.35,-369.81l222.62 -64.57c0,0 89.17,-7.83 108.05,66.53 18.88,74.36 -26.03,93.28 -26.03,93.28 0,0 45.56,5.87 44.91,54.78 -0.65,48.92 -162.72,172.2 -240.2,219.8zm26.1 -257.45l-20.95 -68.29 103.33 -32.39c60.83,-19.07 93.35,42.51 12.87,69.52 -34.49,11.57 -95.25,31.16 -95.25,31.16zm30.2 160.91l-11.81 -82.25 91.48 -39.02c53.85,-22.97 61.88,57.67 -9.54,90.21 -30.61,13.94 -70.13,31.06 -70.13,31.06z"/>
  <path class="fil5" d="M3766.34 2707.05c-9.24,-10.44 -15.52,-15.89 -15.52,-15.89l251.33 -66.22c66.27,-17.45 104.71,26.53 123.59,91 3.06,10.44 4.57,20.53 4.87,30.22 -4.18,-12.16 -8.61,-23.5 -12.66,-30.81 -13.02,-23.48 -66.39,-78.27 -66.39,-78.27l-285.22 69.97z"/>
  <path class="fil5" d="M4095.98 2608.17c-4.86,-6.42 -9.91,-11.67 -15.13,-15.48l222.62 -64.57c0,0 89.17,-7.83 108.05,66.53 9.63,37.92 2.67,61.42 -6.47,75.35 -6.92,-3.36 -11.12,-5.52 -11.12,-5.52 33.85,-104.36 -69,-116.1 -69,-116.1l-228.96 59.8z"/>
  <path class="fil80" d="M3930.28 3044.7l-23.66 -142.23 136.59 -35.28c15.81,-10.41 32.95,-27.16 44.28,-41.59 24.22,-30.88 36.08,-66.89 24.72,-105.69 -15.28,-52.18 -45.68,-97.33 -106.48,-81.32l-227.83 60.02c9.3,10.67 18,22.44 25,32.96 8.97,13.48 16.72,50.28 20.34,66.44 8.13,36.38 15,73.21 21.59,109.9 9.49,52.85 18.41,105.99 26.63,159.1l58.83 -22.33zm372.73 -188.15l-0.27 0.13 -1.1 0.49 -2.2 0.98 -0.36 0.16 -0.08 0.04c-15.6,6.97 -31.26,13.83 -46.93,20.59l-16.91 7.3 -15.97 -111.26 101.46 -43.28c43.08,-18.38 67.74,13.38 60.18,50.31 -0.42,0.67 -35.24,55.78 -77.82,74.54zm110.58 -103.91c1.71,-3.78 2.67,-7.18 2.71,-10.13 0.28,-20.61 -11.74,-37.63 -32.64,-40.59l-52.13 -6.7 48.36 -20.27c5.71,-2.59 11.6,-9.39 14.67,-14.63 10.67,-18.24 8.26,-42.64 3.3,-62.2 -6.88,-27.07 -25.12,-43.31 -51.26,-51.12 -11.79,-3.52 -27.94,-5.77 -40.61,-4.93l-198.87 57.69c51.27,68.63 82.43,250.5 94.27,338.96l1.98 -1.29 7.84 11.65c76.91,-50.65 200.76,-147.56 217.33,-196.68l-14.95 0.23zm-515.06 93.42l-19.03 -131.87 117.79 -26.95c21.5,-4.92 43.01,0.48 58.24,16.81 15.61,16.73 20.88,41.16 14.37,63.01 -8.26,27.68 -32.19,44.26 -59.09,51.25 -32.3,8.39 -64.78,16.24 -97.22,24.09l-15.05 3.66zm308.48 -123.21l-29.26 -95.37 116.72 -36.59c78.74,-24.69 119.55,63.51 21.56,96.4 -31.71,10.64 -63.58,21.02 -95.44,31.21l-13.57 4.35z"/>
  <path class="fil81" d="M6488.96 2811.31c401.91,0 727.71,326.48 727.71,729.22 0,402.74 -325.81,729.22 -727.71,729.22 -401.91,0 -727.71,-326.48 -727.71,-729.22 0,-402.74 325.8,-729.22 727.71,-729.22zm-3.29 397.89c92.75,0 169.58,75.06 171.61,167.63 2.03,92.59 -71.51,167.64 -164.26,167.64 -92.75,0 -169.58,-75.06 -171.61,-167.64 -2.03,-92.57 71.51,-167.63 164.26,-167.63zm304.61 599.19c64.89,-58.87 147.3,-75.27 184.05,-36.64 36.76,38.63 13.94,117.67 -50.95,176.54 -64.89,58.87 -147.3,75.28 -184.05,36.64 -36.75,-38.63 -13.94,-117.67 50.95,-176.54zm-455.13 86.72c84.59,39.64 135.91,114.48 114.61,167.15 -21.3,52.67 -107.13,63.23 -191.73,23.59 -84.59,-39.65 -135.91,-114.48 -114.61,-167.15 21.3,-52.67 107.14,-63.23 191.73,-23.59zm-133.24 -907.64c21.42,26.37 -3.83,85.55 -56.37,132.19 -52.55,46.64 -112.51,63.08 -133.93,36.72 -21.41,-26.37 3.83,-85.54 56.38,-132.19 52.55,-46.65 112.51,-63.08 133.92,-36.72zm499.78 -80.65c79.47,31.46 135.43,87.74 124.98,125.7 -10.44,37.96 -83.34,43.24 -162.81,11.78 -79.48,-31.46 -135.43,-87.75 -124.99,-125.71 10.45,-37.96 83.33,-43.24 162.81,-11.78zm-762.72 511.8c47.67,0 93.55,69.93 102.48,156.2 8.93,86.27 -22.48,156.19 -70.14,156.19 -47.67,0 -93.55,-69.93 -102.48,-156.19 -8.93,-86.27 22.47,-156.2 70.14,-156.2zm1044.69 -166.02c44.43,0 97.31,65.78 118.12,146.92 20.81,81.15 1.67,146.93 -42.76,146.93 -44.42,0 -97.3,-65.78 -118.11,-146.93 -20.81,-81.14 -1.67,-146.92 42.76,-146.92l0 0z"/>
  <path class="fil82" d="M6488.96 2811.31c118.05,0 229.52,28.19 328.11,78.19 207.37,122.63 347.52,356.52 347.52,624.96 0,395.53 -304.24,716.17 -679.54,716.17 -375.3,0 -679.54,-320.64 -679.54,-716.17 0,-245.67 117.39,-462.42 296.26,-591.42 112.14,-70.76 244.89,-111.73 387.19,-111.73zm-3.29 397.89c92.75,0 169.58,75.06 171.61,167.63 2.03,92.59 -71.51,167.64 -164.26,167.64 -92.75,0 -169.58,-75.06 -171.61,-167.64 -2.03,-92.57 71.51,-167.63 164.26,-167.63zm304.61 599.19c64.89,-58.87 147.3,-75.27 184.05,-36.64 36.76,38.63 13.94,117.67 -50.95,176.54 -64.89,58.87 -147.3,75.28 -184.05,36.64 -36.75,-38.63 -13.94,-117.67 50.95,-176.54zm-455.13 86.72c84.59,39.64 135.91,114.48 114.61,167.15 -21.3,52.67 -107.13,63.23 -191.73,23.59 -84.59,-39.65 -135.91,-114.48 -114.61,-167.15 21.3,-52.67 107.14,-63.23 191.73,-23.59zm-133.24 -907.64c21.42,26.37 -3.83,85.55 -56.37,132.19 -52.55,46.64 -112.51,63.08 -133.93,36.72 -21.41,-26.37 3.83,-85.54 56.38,-132.19 52.55,-46.65 112.51,-63.08 133.92,-36.72zm499.78 -80.65c79.47,31.46 135.43,87.74 124.98,125.7 -10.44,37.96 -83.34,43.24 -162.81,11.78 -79.48,-31.46 -135.43,-87.75 -124.99,-125.71 10.45,-37.96 83.33,-43.24 162.81,-11.78zm-762.72 511.8c47.67,0 93.55,69.93 102.48,156.2 8.93,86.27 -22.48,156.19 -70.14,156.19 -47.67,0 -93.55,-69.93 -102.48,-156.19 -8.93,-86.27 22.47,-156.2 70.14,-156.2zm1044.69 -166.02c44.43,0 97.31,65.78 118.12,146.92 20.81,81.15 1.67,146.93 -42.76,146.93 -44.42,0 -97.3,-65.78 -118.11,-146.93 -20.81,-81.14 -1.67,-146.92 42.76,-146.92l0 0z"/>
  <path class="fil83" d="M7078.84 3165.99c54.62,103.13 85.76,221.96 85.76,348.47 0,395.53 -304.24,716.17 -679.54,716.17 -331.83,0 -608.06,-250.68 -667.61,-582.14l62.37 -19.33 0 0c18.36,59.47 54.38,101.85 91.49,101.85 43.28,0 73.15,-57.64 71.6,-132.83 105.22,-22.28 240.27,-55.37 338.43,-95.37 30.14,25.93 69.24,41.66 111.69,41.66 92.75,0 166.29,-75.06 164.26,-167.64 -0.17,-7.78 -0.89,-15.44 -2.08,-22.94 129.43,-62.59 295.9,-134.35 423.63,-187.9zm-288.55 642.4c64.89,-58.87 147.3,-75.27 184.05,-36.64 36.76,38.63 13.94,117.67 -50.95,176.54 -64.89,58.87 -147.3,75.28 -184.05,36.64 -36.75,-38.63 -13.94,-117.67 50.95,-176.54zm-455.13 86.72c84.59,39.64 135.91,114.48 114.61,167.15 -21.3,52.67 -107.13,63.23 -191.73,23.59 -84.59,-39.65 -135.91,-114.48 -114.61,-167.15 21.3,-52.67 107.14,-63.23 191.73,-23.59zm648.51 -642.52c44.43,0 97.31,65.78 118.12,146.92 20.81,81.15 1.67,146.93 -42.76,146.93 -44.42,0 -97.3,-65.78 -118.11,-146.93 -20.81,-81.14 -1.67,-146.92 42.76,-146.92l0 0z"/>
  <path class="fil84" d="M6335.15 3895.11c-84.59,-39.64 -170.43,-29.08 -191.73,23.59 -21.3,52.67 30.02,127.5 114.61,167.15 84.59,39.64 170.43,29.08 191.73,-23.59 21.3,-52.67 -30.02,-127.5 -114.61,-167.15zm455.13 -86.72c-64.89,58.87 -87.7,137.91 -50.95,176.54 36.76,38.63 119.16,22.22 184.05,-36.64 64.89,-58.87 87.71,-137.91 50.95,-176.54 -36.75,-38.63 -119.16,-22.23 -184.05,36.64z"/>
  <path class="fil85" d="M6381.33 3502.82c30.14,25.93 69.25,41.65 111.7,41.65 92.75,0 166.29,-75.06 164.26,-167.64 -0.17,-7.78 -0.87,-15.44 -2.06,-22.94 -13,-81.72 -84.6,-144.69 -169.55,-144.69 -92.75,0 -166.29,75.06 -164.26,167.63 1.1,50.21 24.2,95.27 59.91,125.99z"/>
  <path class="fil85" d="M6041.45 3574.82c-8.93,-86.27 -54.81,-156.2 -102.48,-156.2 -47.67,0 -79.07,69.93 -70.14,156.2 1.98,19.11 5.76,37.42 10.99,54.34 18.35,59.47 54.38,101.85 91.49,101.85 43.28,0 73.15,-57.65 71.6,-132.83 -0.16,-7.63 -0.64,-15.43 -1.46,-23.37z"/>
  <path class="fil85" d="M6011.61 3156.37c21.42,26.37 81.37,9.92 133.93,-36.72 52.55,-46.64 77.79,-105.82 56.37,-132.19 -21.41,-26.36 -81.37,-9.93 -133.92,36.72 -52.55,46.64 -77.79,105.82 -56.38,132.19z"/>
  <path class="fil85" d="M6538.87 2918.6c-10.44,37.96 45.51,94.25 124.99,125.71 79.47,31.46 152.37,26.18 162.81,-11.78 10.45,-37.96 -45.51,-94.24 -124.98,-125.7 -79.48,-31.46 -152.37,-26.19 -162.81,11.78z"/>
  <path class="fil85" d="M6983.67 3252.59c-44.43,0 -63.57,65.78 -42.76,146.92 20.81,81.15 73.69,146.93 118.11,146.93 44.43,0 63.57,-65.78 42.76,-146.93 -20.81,-81.14 -73.69,-146.92 -118.12,-146.92z"/>
  <path class="fil86" d="M5587.17 6700.45c-42.98,37.57 -79.9,65.37 -102.43,75.9 -71.83,33.59 -221.83,139.98 -380.13,157.89 -71.29,8.04 -180.89,-6.12 -167.34,-101.17l230.43 -196.99 363.21 65.23 56.27 -0.85zm343.33 -441.95c-12.19,38.35 -26.7,72.82 -39.6,96.5 -3.93,7.19 -8.32,14.67 -13.11,22.36l-414.59 -80.44 79.41 -93.93 343.69 78.27 23.43 -20.87 20.77 -1.89zm26.48 -129.37c-2.43,36.1 -10.55,75.26 -21.19,111.94l-338.5 -56.35c126.24,-135.63 359.57,-55.63 359.69,-55.59zm-91.1 266.6c-26.64,39.61 -62.36,83.96 -101.59,128.11l-422.15 -75.61 71.61 -101.75 403.56 70.44 14.32 -26.09 34.26 4.9zm-119.8 148.3c-42.3,46.29 -87.54,91.47 -129.22,129.77l-421.83 -69.03 110.65 -109.58 397.06 60 14.32 -10.43 29.02 -0.73z"/>
 </g>
</svg>
